<svg xmlns="http://www.w3.org/2000/svg" fill="none" viewBox="0 0 86 20" height="20" width="86">
<g clip-path="url(#clip0_5839_69880)">
<path fill="black" d="M47.0968 16.3398V8.19564H50.4246V4.89571H47.0968V0H43.3091V4.89299H41.1582V8.19293H43.3105V19.7197H50.4246V16.333L47.0968 16.3398Z"></path>
<path fill="black" d="M14.6003 4.8916H10.0753L3.31154 16.3397H0V19.7263H5.28792L10.8221 10.3508V19.7196H15.2862L20.7945 10.3237V19.7196H24.5823V4.8916H20.037L14.6003 14.087V4.8916Z"></path>
<path fill="black" d="M55.8141 4.8916H52.0264V19.7196H55.8141V4.89295V4.8916Z"></path>
<path fill="black" d="M55.8094 0H52.0312V3.3785H55.8094V0Z"></path>
<path fill="black" d="M33.4731 4.71875H33.4447C29.3716 4.71875 26.1006 8.10536 26.1006 12.3048C26.1006 16.5042 29.3716 19.8908 33.4447 19.8908H33.4731C37.5476 19.8908 40.7888 16.4717 40.7888 12.3048C40.7888 8.13786 37.5476 4.71875 33.4731 4.71875ZM33.4731 16.0978H33.4447C31.4372 16.0978 29.8883 14.4032 29.8883 12.3048C29.8883 10.2065 31.4372 8.5118 33.4447 8.5118H33.4731C35.4238 8.5118 37.0052 10.2349 37.0052 12.3048C37.0025 14.4004 35.4536 16.0951 33.4731 16.0951V16.0978Z"></path>
<path fill="black" d="M79.2198 16.5218C80.7422 16.5218 81.6902 15.6319 81.9482 14.8543H85.7364C85.5928 16.0911 83.9561 19.8881 79.217 19.8881C74.9385 19.8881 71.7773 16.6668 71.7773 12.294C71.7773 8.0092 75.0238 4.70117 79.1012 4.70117C82.9782 4.70117 86 8.09454 86 12.2371C86 12.6678 85.9715 13.0716 85.9431 13.3587H75.6619C75.9178 15.1713 77.0095 16.5218 79.2198 16.5218ZM75.7784 10.6548H82.2721C81.8657 9.16477 80.8649 8.06614 79.113 8.06614C77.2772 8.06614 76.2084 9.13088 75.7826 10.6548H75.7784Z"></path>
<path fill="black" d="M68.4501 4.89564L64.8409 14.5949L61.2318 4.89564H57.1816L62.9106 19.721H66.7226L72.4853 4.90377H68.4501V4.89564Z"></path>
</g>
<defs>
<clipPath id="clip0_5839_69880">
<rect fill="white" height="20" width="86"></rect>
</clipPath>
</defs>
</svg>
