<svg xmlns="http://www.w3.org/2000/svg" fill="none" viewBox="0 0 161 45" height="45" width="161">
<path fill="white" d="M22.1675 0.665039C9.92443 0.665039 0 10.5895 0 22.8325C0 35.0756 9.92443 45 22.1675 45C34.4106 45 44.335 35.0756 44.335 22.8325C44.335 10.5895 34.4106 0.665039 22.1675 0.665039ZM41.6529 19.3132C41.6529 24.4021 37.5278 28.5272 32.4389 28.5272C27.35 28.5272 23.2249 24.4021 23.2249 19.3132C23.2249 14.2244 27.35 10.0993 32.4389 10.0993C37.5278 10.0993 41.6529 14.2244 41.6529 19.3132ZM22.1675 2.77577C27.7314 2.77577 32.7665 5.04208 36.4 8.70041C35.1665 8.23917 33.8308 7.9872 32.4375 7.9872H8.67974C12.2417 4.74881 16.9739 2.77577 22.1675 2.77577ZM21.1114 19.3132V42.8604C14.4075 42.5134 8.57509 38.8729 5.19766 33.528L21.2616 17.4642C21.1624 18.0658 21.1114 18.6841 21.1114 19.3132ZM4.12921 31.6114C2.83633 28.9596 2.11073 25.9813 2.11073 22.8325C2.11073 17.9984 3.82079 13.5635 6.66952 10.0993H25.8492C25.2531 10.5261 24.7009 11.008 24.1998 11.5395L4.12921 31.6114ZM23.2235 42.8617V25.9002C23.6902 26.5515 24.2245 27.1518 24.8152 27.6902L35.2023 38.0771C31.946 40.8639 27.7865 42.625 23.2235 42.8617ZM36.732 36.6217L30.6007 30.4907C31.1984 30.5883 31.8111 30.6393 32.4361 30.6393C36.5103 30.6393 40.0833 28.4873 42.0783 25.2585C41.5509 29.6369 39.6123 33.5804 36.732 36.6217ZM61.4549 29.3038C59.7668 29.3038 58.0788 28.6911 56.9663 27.171L58.58 25.6868C59.4516 26.7442 60.5833 27.2811 61.6036 27.2811C62.9199 27.2811 63.7556 26.5391 63.7556 25.556C63.7556 24.4242 62.6803 24.0166 61.6407 23.7192C59.3042 23.0514 57.4303 22.235 57.4303 19.8984C57.4303 17.6913 59.3042 16.1147 61.7701 16.1147C63.3095 16.1147 64.7195 16.671 65.7768 17.9515L64.126 19.473C63.3659 18.545 62.5674 18.1567 61.7152 18.1567C60.4911 18.1567 59.6939 18.8988 59.6939 19.8076C59.6939 20.8649 60.677 21.2174 61.6601 21.5136C63.9965 22.1442 65.9999 22.867 65.9999 25.4458C65.9999 27.6529 64.2733 29.3038 61.4549 29.3038ZM71.7649 29.323C69.0194 29.323 67.1647 27.2647 67.1647 24.427C67.1647 21.5892 69.0194 19.4937 71.7649 19.4937C74.5281 19.4937 76.124 21.3483 76.124 24.2232C76.124 24.5013 76.1047 24.7422 76.0868 25.0203H69.2245C69.4283 26.4303 70.3934 27.4685 71.802 27.4685C72.8774 27.4685 73.6937 26.9122 74.1578 25.9098L75.9381 26.7634C75.1216 28.4515 73.6388 29.323 71.7649 29.323ZM69.2988 23.4067H74.1028C73.8797 22.1455 73.1017 21.329 71.7662 21.329C70.4307 21.329 69.6142 22.1826 69.2988 23.4067ZM80.066 29.0628L76.3567 19.8268V19.7897H78.5817L81.104 26.6341L83.6266 19.7897H85.8516V19.8268L82.123 29.0628H80.0645H80.066ZM90.6925 29.323C87.9471 29.323 86.0925 27.2647 86.0925 24.427C86.0925 21.5892 87.9471 19.4937 90.6925 19.4937C93.4559 19.4937 95.0517 21.3483 95.0517 24.2232C95.0517 24.5013 95.0325 24.7422 95.0146 25.0203H88.1523C88.3561 26.4303 89.3212 27.4685 90.7298 27.4685C91.805 27.4685 92.6215 26.9122 93.0856 25.9098L94.8658 26.7634C94.0494 28.4515 92.5664 29.323 90.6925 29.323ZM88.2266 23.4067H93.0304C92.8074 22.1455 92.0295 21.329 90.694 21.329C89.4148 21.329 88.542 22.1826 88.2266 23.4067ZM96.591 29.0449V19.7897H98.6687C98.6687 20.328 98.6687 20.7176 98.6316 21.2368L98.761 21.2546C99.3737 20.1421 100.393 19.5667 101.617 19.5667C103.806 19.5667 104.862 21.0687 104.862 23.2386V29.0436H102.747V23.7757C102.747 22.3658 102.116 21.4763 100.781 21.4763C99.4453 21.4763 98.7031 22.5145 98.7031 23.8321V29.0436H96.5883L96.591 29.0449ZM107.047 29.0449V16.415H111.906C114.262 16.415 115.93 17.8249 115.93 20.1064C115.93 22.2211 114.409 23.5196 112.295 23.6861L117.08 28.9719V29.0464H114.262L109.291 23.408H109.272V29.0464H107.047V29.0449ZM111.739 18.3053H109.272V22.0147H111.739C112.926 22.0147 113.705 21.2919 113.705 20.1408C113.705 18.9897 112.908 18.3053 111.739 18.3053ZM121.997 29.323C119.178 29.323 117.267 27.2453 117.267 24.4076C117.267 21.57 119.177 19.4923 121.997 19.4923C124.817 19.4923 126.707 21.5507 126.707 24.3884C126.707 27.2261 124.797 29.323 121.997 29.323ZM121.997 27.4491C123.611 27.4491 124.612 26.0957 124.612 24.3884C124.612 22.681 123.611 21.3647 121.997 21.3647C120.383 21.3647 119.363 22.7004 119.363 24.4063C119.363 26.0943 120.364 27.4491 121.997 27.4491ZM132.629 29.323C129.811 29.323 127.899 27.2453 127.899 24.4076C127.899 21.57 129.809 19.4923 132.629 19.4923C135.43 19.4923 137.341 21.5507 137.341 24.3884C137.341 27.2261 135.431 29.3217 132.63 29.3217L132.629 29.323ZM132.629 27.4491C134.243 27.4491 135.244 26.0957 135.244 24.3884C135.244 22.7004 134.243 21.3647 132.629 21.3647C130.997 21.3647 129.995 22.7004 129.995 24.4063C129.995 26.1123 130.996 27.4491 132.629 27.4491ZM139.014 29.0449V19.7897H141.091C141.091 20.328 141.091 20.6984 141.054 21.2368L141.184 21.2546C141.777 20.1794 142.686 19.5667 143.892 19.5667C145.171 19.5667 146.062 20.1973 146.433 21.2725H146.582C147.195 20.16 148.196 19.5667 149.419 19.5667C151.645 19.5667 152.554 21.1609 152.554 23.2951V29.0449H150.439V23.6669C150.439 22.3506 149.882 21.4598 148.695 21.4598C147.509 21.4598 146.841 22.4236 146.841 23.6669V29.0449H144.745V23.6669C144.745 22.3506 144.152 21.4598 143.02 21.4598C141.833 21.4598 141.128 22.4607 141.128 23.7042V29.0449H139.014ZM157.408 29.323C156.018 29.323 154.738 28.7297 153.921 27.7286L155.367 26.4303C155.944 27.1352 156.667 27.562 157.5 27.562C158.354 27.562 158.966 27.1544 158.966 26.4495C158.966 25.7074 158.205 25.4857 157.334 25.2627C155.812 24.8359 154.367 24.1874 154.367 22.3506C154.367 20.5883 155.851 19.495 157.705 19.495C158.911 19.495 159.931 19.9218 160.71 20.7934L159.319 22.1097C158.855 21.5341 158.319 21.2381 157.688 21.2381C156.872 21.2381 156.315 21.6457 156.315 22.3135C156.315 23.0184 157.037 23.2222 157.911 23.4631C159.468 23.8899 160.915 24.4462 160.915 26.356C160.915 28.1555 159.412 29.323 157.408 29.323Z"></path>
</svg>
