<svg xmlns="http://www.w3.org/2000/svg" fill="none" viewBox="0 0 122 18" height="18" width="122">
<g clip-path="url(#clip0_62_6254)">
<g clip-path="url(#clip1_62_6254)">
<mask height="18" width="122" y="0" x="0" maskUnits="userSpaceOnUse" style="mask-type:luminance" id="mask0_62_6254">
<path fill="white" d="M0 0H122V18H0V0Z"></path>
</mask>
<g mask="url(#mask0_62_6254)">
<path fill="url(#paint0_linear_62_6254)" d="M20.4964 14.1919L17.1498 17.7544C17.0775 17.8318 16.9898 17.8935 16.8923 17.9358C16.7949 17.9781 16.6897 17.9999 16.5833 18H0.71951C0.643848 18 0.56984 17.978 0.506549 17.9369C0.443257 17.8957 0.393429 17.8371 0.363165 17.7683C0.332901 17.6994 0.323516 17.6233 0.336157 17.5492C0.348799 17.4752 0.382919 17.4064 0.43434 17.3513L3.77706 13.7888C3.84944 13.7114 3.93711 13.6496 4.03458 13.6074C4.13206 13.5651 4.23726 13.5433 4.34363 13.5431H20.2074C20.2838 13.5416 20.3589 13.5625 20.4233 13.6032C20.4877 13.6439 20.5386 13.7026 20.5695 13.772C20.6004 13.8413 20.6099 13.9182 20.5969 13.9929C20.5839 14.0676 20.5489 14.1369 20.4964 14.1919ZM17.1498 7.01627C17.0772 6.93924 16.9895 6.87773 16.8921 6.8355C16.7946 6.79327 16.6896 6.7712 16.5833 6.77065H0.71951C0.643848 6.77069 0.56984 6.79264 0.506549 6.8338C0.443257 6.87496 0.393429 6.93355 0.363165 7.0024C0.332901 7.07125 0.323516 7.14737 0.336157 7.22143C0.348799 7.29549 0.382919 7.36429 0.43434 7.4194L3.77706 10.9838C3.84972 11.0608 3.93744 11.1223 4.03485 11.1645C4.13227 11.2068 4.23733 11.2288 4.34363 11.2294H20.2074C20.2829 11.229 20.3567 11.2068 20.4197 11.1655C20.4827 11.1242 20.5322 11.0656 20.5622 10.9968C20.5923 10.928 20.6015 10.852 20.5888 10.7782C20.5761 10.7043 20.542 10.6356 20.4907 10.5806L17.1498 7.01627ZM0.71951 4.4569H16.5833C16.6897 4.45681 16.7949 4.43495 16.8923 4.39269C16.9898 4.35043 17.0775 4.28867 17.1498 4.21127L20.4964 0.648772C20.5356 0.607599 20.5652 0.55833 20.583 0.504488C20.6008 0.450646 20.6064 0.39356 20.5994 0.337311C20.5925 0.281061 20.573 0.227038 20.5426 0.179104C20.5121 0.131169 20.4714 0.0905057 20.4233 0.0600216C20.3588 0.0193255 20.2837 -0.00154966 20.2074 2.15661e-05H4.34363C4.23726 0.000132724 4.13206 0.022 4.03458 0.0642598C3.93711 0.10652 3.84944 0.168265 3.77706 0.245647L0.43434 3.80815C0.382919 3.86325 0.348799 3.93205 0.336157 4.00611C0.323516 4.08018 0.332901 4.15629 0.363165 4.22514C0.393429 4.29399 0.443257 4.35258 0.506549 4.39375C0.56984 4.43491 0.643848 4.45685 0.71951 4.4569Z"></path>
<path fill="black" d="M39.8369 7.61253H31.3498V4.83753H42.0427V2.06253H31.3215C30.9551 2.06051 30.592 2.13015 30.2528 2.26749C29.9136 2.40482 29.605 2.60716 29.3445 2.86293C29.0841 3.11871 28.877 3.42292 28.735 3.75819C28.593 4.09346 28.5189 4.45321 28.517 4.81691V7.62941C28.5184 7.99342 28.5921 8.35358 28.7339 8.68928C28.8757 9.02498 29.0827 9.32963 29.3432 9.5858C29.6037 9.84198 29.9125 10.0447 30.2519 10.1822C30.5914 10.3198 30.9548 10.3896 31.3215 10.3875H39.8199V13.1625H28.719V15.9375H39.8369C40.3886 15.9406 40.9288 15.7811 41.3892 15.4793C41.8496 15.1774 42.2095 14.7467 42.4233 14.2418C42.5653 13.9066 42.6395 13.5468 42.6414 13.1832V10.3707C42.6399 10.0067 42.5662 9.64651 42.4244 9.31082C42.2826 8.97513 42.0756 8.67049 41.8151 8.41432C41.5546 8.15814 41.2459 7.95547 40.9064 7.8179C40.567 7.68032 40.2035 7.61053 39.8369 7.61253ZM56.2786 2.06253H47.7594C47.2067 2.05816 46.6652 2.21684 46.2036 2.51844C45.7419 2.82004 45.3808 3.25098 45.1662 3.75659C45.0236 4.09227 44.9492 4.45261 44.9473 4.81691V13.1832C44.9492 13.5475 45.0236 13.9078 45.1662 14.2437C45.3808 14.7493 45.7418 15.1802 46.2035 15.4818C46.6652 15.7834 47.2067 15.942 47.7594 15.9375H56.2786C56.6449 15.9396 57.008 15.8699 57.3472 15.7326C57.6864 15.5952 57.9951 15.3929 58.2555 15.1371C58.5159 14.8814 58.7231 14.5771 58.8651 14.2419C59.0071 13.9066 59.0811 13.5469 59.0831 13.1832V4.81691C59.0812 4.45322 59.0071 4.09348 58.865 3.75824C58.723 3.423 58.5158 3.11884 58.2553 2.86316C57.995 2.6073 57.6864 2.40489 57.3472 2.26751C57.008 2.13014 56.6449 2.06048 56.2786 2.06253ZM56.2578 13.1625H47.7801V4.83753H56.254L56.2578 13.1625ZM86.1176 2.06253H77.808C77.4417 2.06051 77.0785 2.13015 76.7393 2.26749C76.4001 2.40482 76.0915 2.60716 75.8311 2.86293C75.5706 3.11871 75.3635 3.42292 75.2215 3.75819C75.0795 4.09346 75.0054 4.45321 75.0035 4.81691V15.9375H77.8363V11.3794H86.1081V15.9375H88.941V4.81691C88.9391 4.45161 88.8644 4.09028 88.7213 3.75376C88.5781 3.41724 88.3693 3.11217 88.1069 2.85613C87.8444 2.6001 87.5335 2.39816 87.1921 2.26196C86.8507 2.12575 86.4855 2.05798 86.1176 2.06253ZM86.0968 8.60441H77.825V4.83753H86.0968V8.60441ZM119.195 2.06253H110.886C110.52 2.06051 110.156 2.13015 109.817 2.26749C109.478 2.40482 109.169 2.60716 108.909 2.86293C108.648 3.11871 108.441 3.42292 108.299 3.75819C108.157 4.09346 108.083 4.45321 108.081 4.81691V15.9375H110.914V11.3794H119.167V15.9375H122V4.81691C121.998 4.45322 121.924 4.09348 121.782 3.75824C121.64 3.423 121.433 3.11884 121.172 2.86316C120.646 2.34661 119.935 2.05862 119.195 2.06253ZM119.167 8.60441H110.895V4.83753H119.167V8.60441ZM102.737 13.1625H101.604L97.5527 3.22503C97.4139 2.88215 97.1751 2.58827 96.8668 2.38114C96.5586 2.174 96.195 2.06305 95.8228 2.06253H93.3092C92.9412 2.06056 92.5809 2.16704 92.274 2.36847C91.967 2.5699 91.7271 2.85724 91.5847 3.19409C91.4902 3.41767 91.4408 3.65754 91.4395 3.90003V15.9375H94.2723V4.83753H95.4054L99.4545 14.775C99.5956 15.1173 99.8362 15.41 100.146 15.6157C100.455 15.8215 100.819 15.9309 101.192 15.93H103.706C103.95 15.9313 104.192 15.8848 104.418 15.7931C104.644 15.7014 104.85 15.5664 105.024 15.3957C105.374 15.051 105.573 14.5823 105.575 14.0925V2.06253H102.737V13.1625ZM64.4182 2.06253H61.5854V13.1832C61.5873 13.5476 61.6617 13.9081 61.8043 14.244C61.9469 14.5799 62.1549 14.8844 62.4163 15.1403C62.6778 15.3962 62.9875 15.5983 63.3278 15.7351C63.6681 15.8719 64.0322 15.9407 64.3993 15.9375H72.8978V13.1625H64.4182V2.06253Z"></path>
</g>
</g>
</g>
<defs>
<linearGradient gradientUnits="userSpaceOnUse" y2="-0.307275" x2="18.5419" y1="18.4294" x1="2.04149" id="paint0_linear_62_6254">
<stop stop-color="#9945FF" offset="0.08"></stop>
<stop stop-color="#8752F3" offset="0.3"></stop>
<stop stop-color="#5497D5" offset="0.5"></stop>
<stop stop-color="#43B4CA" offset="0.6"></stop>
<stop stop-color="#28E0B9" offset="0.72"></stop>
<stop stop-color="#19FB9B" offset="0.97"></stop>
</linearGradient>
<clipPath id="clip0_62_6254">
<rect fill="white" height="18" width="122"></rect>
</clipPath>
<clipPath id="clip1_62_6254">
<rect fill="white" height="18" width="122"></rect>
</clipPath>
</defs>
</svg>
