<svg xmlns="http://www.w3.org/2000/svg" fill="none" viewBox="0 0 162 28" height="28" width="162">
<g clip-path="url(#clip0_62_6495)">
<path fill="#D22029" d="M107.142 11.9248H105.614C100.832 11.9248 97.7495 14.98 97.7495 19.7085C97.7495 24.437 100.832 27.4922 105.614 27.4922H107.142C111.924 27.4922 115.012 24.437 115.012 19.7085C115.012 14.98 111.924 11.9248 107.142 11.9248ZM111.735 19.7085C111.735 22.6503 109.943 24.41 106.953 24.41H105.798C102.813 24.41 101.031 22.6503 101.031 19.7085C101.031 16.7667 102.813 15.0016 105.798 15.0016H106.964C109.954 15.0016 111.735 16.7613 111.735 19.7085Z"></path>
<path fill="#D22029" d="M140.695 11.9248C140.478 11.9087 140.26 11.9395 140.056 12.0152C139.853 12.0909 139.667 12.2096 139.514 12.3633C139.36 12.517 139.241 12.7021 139.166 12.9059C139.09 13.1097 139.059 13.3274 139.075 13.5442V25.8728C139.075 26.3023 139.246 26.7142 139.55 27.0179C139.853 27.3216 140.265 27.4922 140.695 27.4922C141.124 27.4922 141.536 27.3216 141.84 27.0179C142.143 26.7142 142.314 26.3023 142.314 25.8728V13.5442C142.33 13.3274 142.299 13.1097 142.224 12.9059C142.148 12.7021 142.029 12.517 141.875 12.3633C141.722 12.2096 141.537 12.0909 141.333 12.0152C141.129 11.9395 140.911 11.9087 140.695 11.9248Z"></path>
<path fill="#D22029" d="M58.4478 14.5374C58.5825 14.3665 58.6791 14.1687 58.7309 13.9573C58.7827 13.746 58.7886 13.526 58.7482 13.3121C58.7078 13.0983 58.622 12.8956 58.4966 12.7178C58.3712 12.5399 58.2092 12.391 58.0213 12.2811C57.8512 12.1421 57.6528 12.0418 57.4401 11.987C57.2273 11.9322 57.0052 11.9243 56.7891 11.9639C56.5729 12.0034 56.368 12.0894 56.1884 12.2159C56.0088 12.3425 55.8588 12.5065 55.7488 12.6967L48.7316 22.9526L41.7145 12.6967C41.4704 12.3388 41.0941 12.0925 40.6684 12.0121C40.2428 11.9316 39.8026 12.0235 39.4447 12.2676C39.0868 12.5117 38.8405 12.8879 38.76 13.3136C38.6795 13.7393 38.7714 14.1795 39.0155 14.5374C39.0155 14.5374 47.3822 26.7419 47.5009 26.8768C47.6416 27.076 47.8299 27.2366 48.0487 27.3441C48.2674 27.4516 48.5097 27.5025 48.7532 27.4922C48.9978 27.5004 49.2406 27.448 49.46 27.3397C49.6795 27.2314 49.8687 27.0706 50.0109 26.8714C50.1243 26.7419 58.4478 14.5374 58.4478 14.5374Z"></path>
<path fill="#D22029" d="M157.234 18.1701H151.48C151.263 18.1974 151.044 18.1753 150.837 18.1057C150.63 18.0361 150.442 17.9206 150.286 17.768C150.131 17.6154 150.011 17.4296 149.938 17.2244C149.864 17.0192 149.837 16.8 149.86 16.5832C149.835 16.366 149.86 16.1461 149.933 15.9401C150.006 15.7341 150.125 15.5476 150.282 15.3948C150.438 15.2421 150.627 15.1273 150.835 15.0591C151.043 14.9909 151.263 14.9713 151.48 15.0016H159.911C160.117 15.0134 160.322 14.9815 160.515 14.9081C160.707 14.8346 160.882 14.7212 161.027 14.5753C161.172 14.4295 161.285 14.2544 161.358 14.0618C161.431 13.8692 161.462 13.6633 161.449 13.4578C161.461 13.2527 161.429 13.0474 161.356 12.8555C161.283 12.6635 161.17 12.4892 161.025 12.3439C160.88 12.1986 160.705 12.0857 160.513 12.0126C160.321 11.9394 160.116 11.9077 159.911 11.9194H151.301C148.441 11.9194 146.595 13.7493 146.595 16.5778C146.595 19.4062 148.441 21.2415 151.301 21.2415H157.077C157.293 21.2133 157.513 21.2345 157.72 21.3035C157.926 21.3724 158.115 21.4873 158.27 21.6396C158.426 21.7918 158.546 21.9774 158.619 22.1824C158.693 22.3874 158.72 22.6064 158.697 22.8231C158.724 23.0406 158.701 23.2616 158.628 23.4686C158.556 23.6757 158.437 23.8631 158.28 24.0164C158.123 24.1696 157.933 24.2844 157.724 24.3517C157.515 24.4191 157.294 24.4372 157.077 24.4046H148.155C147.948 24.3914 147.741 24.422 147.547 24.4944C147.354 24.5667 147.177 24.6792 147.03 24.8245C146.883 24.9697 146.768 25.1444 146.693 25.3372C146.618 25.53 146.584 25.7364 146.595 25.943C146.581 26.1509 146.612 26.3593 146.686 26.5542C146.759 26.7491 146.874 26.9259 147.022 27.0727C147.17 27.2196 147.347 27.333 147.543 27.4053C147.738 27.4777 147.947 27.5073 148.155 27.4922H157.234C160.089 27.4922 161.935 25.6623 161.935 22.8285C161.935 19.9946 160.089 18.1701 157.234 18.1701Z"></path>
<path fill="#D22029" d="M78.8408 13.5442V25.8728C78.8408 26.3059 79.0129 26.7212 79.3191 27.0274C79.6253 27.3336 80.0406 27.5057 80.4737 27.5057C80.9067 27.5057 81.322 27.3336 81.6283 27.0274C81.9345 26.7212 82.1065 26.3059 82.1065 25.8728V22.1537H88.4544L91.6499 26.8336C91.7681 27.03 91.9339 27.1934 92.1321 27.3085C92.3303 27.4236 92.5543 27.4868 92.7834 27.4922H92.94C93.1371 27.4711 93.3278 27.4093 93.4999 27.3109C93.672 27.2124 93.8218 27.0794 93.94 26.9201C94.0582 26.7609 94.1421 26.5789 94.1864 26.3857C94.2308 26.1924 94.2346 25.9921 94.1977 25.7973C94.1703 25.5554 94.0769 25.3257 93.9278 25.1333L91.6175 21.7597C93.2369 21.0742 94.1923 19.4548 94.1923 17.328C94.1923 17.2525 94.1923 17.1823 94.1923 17.1067C94.1907 17.0888 94.1907 17.0707 94.1923 17.0528C94.1896 17.0204 94.1896 16.9879 94.1923 16.9556C94.1923 16.88 94.1923 16.8099 94.1923 16.7397C94.1923 13.8195 92.4326 11.9356 89.7121 11.9356H80.4818C80.265 11.9195 80.0473 11.9503 79.8435 12.026C79.6397 12.1017 79.4546 12.2204 79.3009 12.3741C79.1472 12.5278 79.0285 12.7129 78.9528 12.9167C78.8771 13.1205 78.8463 13.3382 78.8624 13.555L78.8408 13.5442ZM82.1281 15.0124H89.291C90.9104 15.0124 91.1101 16.4266 91.1155 17.0312C91.1209 17.6357 90.9482 18.8772 89.5555 19.0284H82.1065L82.1281 15.0124Z"></path>
<path fill="#D22029" d="M75.6831 24.8958C75.6831 24.8958 67.3597 12.6589 67.2301 12.524C67.0873 12.3305 66.8998 12.1744 66.6836 12.0692C66.4675 11.9639 66.229 11.9125 65.9886 11.9194C65.7444 11.9131 65.5022 11.9663 65.2831 12.0744C65.064 12.1826 64.8745 12.3424 64.7309 12.5402C64.6176 12.6589 56.2941 24.8904 56.2941 24.8904C56.05 25.2483 55.9581 25.6885 56.0386 26.1142C56.119 26.5399 56.3653 26.9161 56.7232 27.1602C57.0811 27.4043 57.5213 27.4962 57.947 27.4157C58.3727 27.3353 58.7489 27.089 58.993 26.7311L60.7095 24.2157H71.2515L72.9734 26.7365C73.2175 27.0944 73.5938 27.3407 74.0194 27.4211C74.4451 27.5016 74.8853 27.4097 75.2432 27.1656C75.6011 26.9215 75.8474 26.5453 75.9279 26.1196C76.0084 25.6939 75.9164 25.2537 75.6723 24.8958H75.6831ZM62.5718 21.4736L65.9778 16.486L69.3785 21.4736H62.5718Z"></path>
<path fill="#D22029" d="M133.37 27.4922C133.152 27.5141 132.932 27.4872 132.725 27.4136C132.519 27.34 132.331 27.2214 132.176 27.0664C132.021 26.9114 131.903 26.7239 131.829 26.5175C131.755 26.3111 131.729 26.0909 131.75 25.8728V19.5628C131.75 16.1783 129.354 14.9746 127.108 14.9746H125.932C123.686 14.9746 121.289 16.1783 121.289 19.5628V25.8728C121.31 26.0907 121.283 26.3105 121.209 26.5164C121.135 26.7224 121.016 26.9094 120.861 27.0642C120.707 27.2189 120.52 27.3376 120.314 27.4116C120.108 27.4855 119.888 27.5131 119.67 27.4922C119.453 27.5092 119.235 27.479 119.031 27.4037C118.827 27.3283 118.641 27.2096 118.487 27.0557C118.333 26.9018 118.215 26.7164 118.139 26.5121C118.064 26.3079 118.034 26.0898 118.051 25.8728V19.5628C118.051 14.926 121.079 11.9248 125.764 11.9248H127.297C131.983 11.9248 135.011 14.926 135.011 19.5628V25.8728C135.028 26.0898 134.998 26.3079 134.922 26.5121C134.847 26.7164 134.728 26.9018 134.574 27.0557C134.42 27.2096 134.235 27.3283 134.031 27.4037C133.827 27.479 133.608 27.5092 133.391 27.4922"></path>
<path fill="#D22029" d="M17.4998 0.492188H11.4974L22.2769 16.3079L25.2835 11.9032L17.4998 0.492188Z"></path>
<path fill="#558DCA" d="M33.2129 23.541L25.2835 11.9032L22.2769 16.3025L29.1159 26.337C29.4867 26.8803 30.0581 27.2541 30.7045 27.3761C31.3508 27.498 32.0192 27.3583 32.5624 26.9875C33.1057 26.6167 33.4795 26.0453 33.6015 25.3989C33.7234 24.7526 33.5837 24.0843 33.2129 23.541Z"></path>
<path fill="#558DCA" d="M17.6185 26.337C17.7867 26.6224 18.0145 26.868 18.2864 27.0571C18.5582 27.2462 18.8678 27.3744 19.1937 27.4328C19.5197 27.4912 19.8545 27.4786 20.1751 27.3956C20.4958 27.3127 20.7947 27.1615 21.0515 26.9524C21.3375 26.7861 21.5845 26.5604 21.7757 26.2904C21.9669 26.0204 22.0979 25.7125 22.1598 25.3876C22.2218 25.0626 22.2132 24.7281 22.1346 24.4067C22.0561 24.0853 21.9095 23.7846 21.7047 23.5248L19.5131 20.2861L16.5173 24.7285L17.5969 26.3478"></path>
<path fill="#D22029" d="M0 0.492188L16.5228 24.7285L19.5294 20.3293L6.0078 0.492188H0Z"></path>
</g>
<defs>
<clipPath id="clip0_62_6495">
<rect transform="translate(0 0.492188)" fill="white" height="27" width="161.935"></rect>
</clipPath>
</defs>
</svg>
