<svg xmlns="http://www.w3.org/2000/svg" fill="none" viewBox="0 0 168 31" height="31" width="168">
<g clip-path="url(#clip0_62_6369)">
<path fill="#1E98FF" d="M166.496 24.0243H0.920776V31H166.496V24.0243Z"></path>
<path fill="black" d="M0 16.9928L5.83168 15.8767C5.94329 18.8623 6.89198 20.3132 8.87308 20.3132C10.6031 20.3132 11.3843 19.5319 11.3843 17.216V0H17.4671V15.793C17.4671 21.9595 14.928 24.4986 8.76147 24.4986C2.34383 24.4986 0.50225 20.7597 0 16.9928ZM21.234 18.1647V6.58505H27.1494V18.2763C27.1494 19.9505 27.9307 20.6201 29.2421 20.6201C30.9721 20.6201 32.0045 19.5598 32.0045 17.1323V6.58505H37.9199V24.0243H32.2835V19.3087H32.144C31.279 23.3825 29.3537 24.4428 26.7308 24.4428C23.0477 24.4428 21.234 22.4896 21.234 18.1647ZM40.9613 20.3132L44.1422 18.1647C45.2025 20.1179 46.8487 20.8713 49.0252 20.8713C50.6714 20.8713 51.3969 20.3969 51.3969 19.4761C51.3969 18.4158 50.6993 17.8578 48.7461 17.5229L46.3186 17.0486C43.0261 16.4626 41.2682 14.5373 41.2682 11.8308C41.2682 8.23131 44.1701 6.13861 48.6066 6.13861C52.9873 6.13861 55.0801 7.95229 56.1683 9.9892L53.0711 11.9703C52.2898 10.1566 50.6714 9.57065 49.1926 9.57065C47.6579 9.57065 46.8487 10.1287 46.8487 11.0216C46.8487 11.8866 47.5184 12.3888 49.1926 12.6958L51.6759 13.1701C55.3312 13.8398 57.117 15.3186 57.117 18.5832C57.117 21.6525 55.1638 24.4149 49.3879 24.4149C45.1188 24.4428 42.2448 22.8245 40.9613 20.3132ZM60.6048 19.3366V10.0729H58.2331V6.58505H60.6048V2.009H66.5481V6.58505H69.4221V10.0729H66.5481V18.7786C66.5481 19.9226 67.0224 20.3969 67.8874 20.3969H69.4221V24.0243H65.5436C61.8046 24.0243 60.6048 22.8524 60.6048 19.3366ZM71.2637 6.58505H77.6813L80.0809 17.5787H80.2204L83.2897 6.58505H88.1727L91.1304 17.5787H91.2699L93.9207 6.58505H98.6363L93.2231 24.0243H88.1169L85.0197 13.0585H84.8802L81.9225 24.0243H76.8163L71.2637 6.58505ZM99.1943 15.2907C99.1943 9.71017 102.822 6.13861 108.263 6.13861C113.704 6.13861 117.331 9.71017 117.331 15.2907C117.331 20.8713 113.704 24.4428 108.263 24.4428C102.794 24.4428 99.1943 20.8992 99.1943 15.2907ZM111.109 15.2907C111.109 10.7984 110.132 9.59855 108.235 9.59855C106.337 9.59855 105.361 10.7705 105.361 15.2907C105.361 19.7831 106.337 20.9829 108.235 20.9829C110.132 20.9829 111.109 19.811 111.109 15.2907ZM119.926 6.58505H125.507V12.3888H125.646C126.483 7.61745 128.074 6.47345 130.669 6.47345H130.976V11.6913H128.102C126.372 11.6913 125.841 12.2493 125.841 14.3141V23.9964H119.926V6.58505ZM140.881 17.0486L139.179 18.9181V24.0243H133.319V0.0279045H139.179V14.063L145.234 6.58505H150.508L144.76 12.8632L150.898 24.0243H144.62L140.881 17.0486ZM151.261 20.3132L154.47 18.1647C155.53 20.1179 157.176 20.8713 159.353 20.8713C160.999 20.8713 161.724 20.3969 161.724 19.4761C161.724 18.4158 161.027 17.8578 159.074 17.5229L156.646 17.0486C153.354 16.4626 151.596 14.5373 151.596 11.8308C151.596 8.23131 154.498 6.13861 158.934 6.13861C163.315 6.13861 165.408 7.95229 166.496 9.9892L163.399 11.9703C162.617 10.1566 160.999 9.57065 159.52 9.57065C157.985 9.57065 157.176 10.1287 157.176 11.0216C157.176 11.8866 157.846 12.3888 159.52 12.6958L162.003 13.1701C165.659 13.8398 167.444 15.3186 167.444 18.5832C167.444 21.6525 165.491 24.4149 159.715 24.4149C155.474 24.4428 152.572 22.8245 151.261 20.3132Z"></path>
</g>
<defs>
<clipPath id="clip0_62_6369">
<rect fill="white" height="31" width="167.444"></rect>
</clipPath>
</defs>
</svg>
