<svg xmlns="http://www.w3.org/2000/svg" fill="none" viewBox="0 0 1209 212" height="212" width="1209">
<g clip-path="url(#clip0_9522_1393)">
<mask height="212" width="1209" y="0" x="0" maskUnits="userSpaceOnUse" style="mask-type:luminance" id="mask0_9522_1393">
<path fill="white" d="M1209 0H0V212H1209V0Z"></path>
</mask>
<g mask="url(#mask0_9522_1393)">
<path fill="black" d="M118 132.6H45.2V101.8H118C130.6 101.8 137.5 108 137.5 117.2C137.5 126.4 130.6 132.6 118 132.6ZM45.2 38.2H113.7C126.5 38.2 133.7 43.2 133.7 52.6C133.7 62.1 126.6 67 113.7 67H45.2V38.2ZM154.4 82.4C164.9 77.4 177.7 65.6 177.7 46.9C177.7 16.9 156.3 0.6 118.5 0.5H0.5V170.4H122.5C160.6 170.4 182.4 152.4 182.4 122.4C182.5 102.3 169.6 88.6 154.4 82.4Z"></path>
<path fill="black" d="M530.801 135C517.001 135 510.601 130.3 510.601 118.9V81.9999H560.101V45.4999H510.601V12.3999H466.101V45.4999H458.501H409.001V12.3999H364.501V45.4999H338.301V81.9999H364.501V131.4C364.501 160 385.901 172.8 415.601 172.8C437.001 172.8 452.901 169 464.601 164.5L456.301 129.9C448.001 133 438.501 134.9 429.201 134.9C415.401 134.9 409.001 130.2 409.001 118.8V81.9999H440.001H466.201V131.4C466.201 160 487.601 172.8 517.301 172.8C538.701 172.8 554.601 169 566.301 164.5L558.001 130C549.601 133.1 540.101 135 530.801 135Z"></path>
<path fill="black" d="M764.8 66.4002V45.6002H719.6V170.5H764.8V123.2C764.8 96.7002 783.1 87.4002 808.1 87.5002C815 87.5002 818.1 88.0002 823.8 88.9002V45.9002C819.8 45.4002 815.7 45.0002 810 45.0002C789.5 44.9002 775.7 51.3002 764.8 66.4002Z"></path>
<path fill="black" d="M964.401 90.3001C964.401 117.5 950.101 132.9 920.401 132.9C890.701 132.9 876.401 117.5 876.401 90.3001V0.600098H829.801V94.8001C829.801 143.6 861.901 173.1 920.401 173.1C978.901 173.1 1011 143.5 1011 94.8001V0.600098H964.401V90.3001Z"></path>
<path fill="black" d="M1094.5 137.7C1075.9 137.7 1061.2 125.8 1061.2 108.8V107.4C1061.2 90.4002 1076 78.5 1094.5 78.5C1112.8 78.5 1128 88.9 1128 108C1128 127.2 1112.8 137.7 1094.5 137.7ZM1105.4 42.8C1085.7 42.8 1070.2 49.9001 1062.3 58.7001V45.7001H1017.1V211.5H1062.3V157.6C1070.2 166.4 1085.6 173.5 1105.3 173.5C1147.9 173.5 1172.4 144.2 1172.4 108.2C1172.5 72.2 1148 42.8 1105.4 42.8Z"></path>
<path fill="black" d="M294.5 123.1L335.9 135.2C326 159.3 296.6 173.3 264.4 173.3C218.3 173.3 186.5 146.6 186.5 107.8C186.5 70.4 218.7 42.7 263.9 42.7C311.7 42.7 337.7 72.7 337.7 108V118.9H231.1C235.4 131.7 247.4 138.8 264.2 138.8C277.7 138.7 289.5 133.3 294.5 123.1ZM231.8 94.1998H291.9C290.5 85.6998 280.3 76.1998 263 76.1998C249 76.2998 237 82.1998 231.8 94.1998Z"></path>
<path fill="black" d="M670.1 123.1L711.5 135.2C701.6 159.3 672.2 173.3 640 173.3C593.9 173.3 562.1 146.6 562.1 107.8C562.1 70.4 594.3 42.7 639.5 42.7C687.3 42.7 713.3 72.7 713.3 108V118.9H606.7C611 131.7 623 138.8 639.8 138.8C653.3 138.7 665.1 133.3 670.1 123.1ZM607.4 94.1998H667.5C666.1 85.6998 655.9 76.1998 638.6 76.1998C624.7 76.2998 612.6 82.1998 607.4 94.1998Z"></path>
<path fill="black" d="M1208.98 18.1776C1208.98 28.3651 1201.1 35.767 1191.39 35.767C1181.68 35.767 1173.8 28.3651 1173.8 18.1776C1173.8 7.99003 1181.68 0.588135 1191.39 0.588135C1201.1 0.588135 1208.98 7.99003 1208.98 18.1776ZM1206.27 18.1776C1206.27 9.50224 1199.66 3.05543 1191.39 3.05543C1183.11 3.05543 1176.5 9.50224 1176.5 18.1776C1176.5 26.7733 1183.11 33.2997 1191.39 33.2997C1199.66 33.2997 1206.27 26.7733 1206.27 18.1776ZM1200.14 26.7733H1194.57L1190.99 20.8836H1188.6V26.7733H1183.59V9.0247H1192.18C1196.56 9.0247 1199.27 11.0144 1199.27 14.7552C1199.27 17.5408 1197.36 18.8939 1195.6 19.6102L1200.14 26.7733ZM1194.09 15.1531C1194.09 13.7205 1192.98 13.0838 1191.47 13.0838H1188.6V17.2225H1191.47C1192.98 17.2225 1194.09 16.5858 1194.09 15.1531Z"></path>
</g>
</g>
<defs>
<clipPath id="clip0_9522_1393">
<rect fill="white" height="212" width="1209"></rect>
</clipPath>
</defs>
</svg>
