<svg xmlns="http://www.w3.org/2000/svg" fill="none" viewBox="0 0 133 32" height="32" width="133">
<g clip-path="url(#clip0_62_6035)">
<path fill="#006BFF" d="M78.7099 12.627C80.7665 12.627 82.7141 13.8851 83.1251 16.6035H73.9659C74.3493 14.2181 76.1324 12.627 78.7099 12.627ZM82.8324 20.6253C82.1329 21.7157 80.7808 22.5544 78.9297 22.5544C76.379 22.5544 74.4314 21.1562 73.9659 18.6878H85.4568C85.5122 18.334 85.5403 17.9765 85.5407 17.6184C85.5407 13.7794 82.8567 10.3783 78.7116 10.3783C74.434 10.3783 71.5269 13.532 71.5269 17.5915C71.5269 21.7014 74.4625 24.8048 78.876 24.8048C81.6187 24.8048 83.703 23.5701 84.9091 21.7014L82.8324 20.6253Z"></path>
<path fill="#006BFF" d="M70.398 4.42737H68.0126V24.4475H70.398V4.42737Z"></path>
<path fill="#006BFF" d="M98.814 16.0281V24.4467H96.4277V16.1649C96.4277 13.9162 95.1394 12.6547 93.0274 12.6547C90.8333 12.6547 89.0509 13.9439 89.0509 17.1798V24.4467H86.6647V10.7365H89.0509V12.7109C90.0658 11.0929 91.5739 10.38 93.4963 10.38C96.7045 10.38 98.8165 12.5188 98.8165 16.0298"></path>
<path fill="#006BFF" d="M111.97 17.5907C111.97 14.7935 109.858 12.6815 107.088 12.6815C104.346 12.6815 102.234 14.7935 102.234 17.5907C102.234 20.3879 104.346 22.4999 107.088 22.4999C109.856 22.4999 111.97 20.3879 111.97 17.5907ZM114.355 4.42737V24.4475H111.97V22.0881C110.873 23.7656 109.118 24.804 106.786 24.804C102.974 24.804 99.8481 21.6494 99.8481 17.5907C99.8481 13.532 102.974 10.3775 106.786 10.3775C109.117 10.3775 110.873 11.4192 111.97 13.0925V4.42737H114.355Z"></path>
<path fill="#006BFF" d="M118.665 4.42737H116.279V24.4475H118.665V4.42737Z"></path>
<path fill="#006BFF" d="M63.76 17.5907C63.76 14.7935 61.6489 12.6815 58.8785 12.6815C56.1366 12.6815 54.0247 14.7935 54.0247 17.5907C54.0247 20.3879 56.1366 22.4999 58.8785 22.4999C61.6464 22.4999 63.76 20.3879 63.76 17.5907ZM66.1463 10.7364V24.4466H63.76V22.0881C62.663 23.7656 60.9083 24.8039 58.5774 24.8039C54.7653 24.8039 51.6384 21.6494 51.6384 17.5907C51.6384 13.532 54.7653 10.3774 58.5774 10.3774C60.9083 10.3774 62.663 11.4192 63.76 13.0925V10.7364H66.1463Z"></path>
<path fill="#006BFF" d="M48.0998 21.808C46.8785 22.2586 45.5601 22.3803 44.277 22.1608C42.9938 21.9413 41.7909 21.3883 40.7889 20.5572C39.7869 19.7262 39.0209 18.6463 38.5678 17.4259C38.1148 16.2055 37.9905 14.8874 38.2075 13.6038C38.4246 12.3203 38.9752 11.1163 39.8043 10.1126C40.6334 9.10898 41.7117 8.34092 42.9312 7.88548C44.1508 7.43003 45.4686 7.3032 46.7526 7.5177C48.0366 7.7322 49.2417 8.28049 50.247 9.1076C50.6661 9.45347 51.0454 9.84507 51.3776 10.2751L53.4418 8.76539C52.2392 7.19331 50.597 6.01365 48.7233 5.37593C46.8495 4.73821 44.8286 4.67114 42.9167 5.18322C41.0048 5.6953 39.288 6.76347 37.9839 8.25236C36.6797 9.74124 35.847 11.5838 35.5912 13.5465C35.3354 15.5092 35.668 17.5036 36.547 19.277C37.4259 21.0504 38.8116 22.523 40.5284 23.508C42.2452 24.493 44.2157 24.9461 46.1903 24.81C48.1649 24.6738 50.0547 23.9545 51.62 22.7432L50.2461 20.5708C49.6043 21.0994 48.8789 21.5175 48.0998 21.808Z"></path>
<path fill="#006BFF" d="M130.181 10.7365V18.5184C130.181 21.0346 128.717 22.6283 126.483 22.6283C124.248 22.6283 122.63 21.0346 122.63 18.5184V10.7365H120.216V18.2852C120.216 22.2407 122.681 24.809 126.483 24.809C129.771 24.809 130.284 22.7289 130.284 22.6769V25.4766C130.284 28.2504 129.077 29.8172 126.56 29.8172C125.661 29.8216 124.791 29.4991 124.112 28.9096C123.433 28.3201 122.991 27.504 122.869 26.6132L120.711 27.368C121.02 28.6878 121.767 29.864 122.829 30.7052C123.892 31.5464 125.209 32.0029 126.564 32.0004C130.468 32.0004 132.603 29.4314 132.603 25.4766V10.7365H130.181Z"></path>
<path fill="#006BFF" d="M15.2828 9.86499H14.0414C11.755 9.86499 10.2528 11.498 10.2528 13.5882V15.2867C10.2528 17.3768 11.755 19.0099 14.0414 19.0099H15.2828C18.6143 19.0099 18.3526 15.613 23.3835 15.613C23.8601 15.6124 24.3358 15.6562 24.8043 15.7438C24.957 14.8796 24.957 13.9953 24.8043 13.1311C24.3357 13.2183 23.8601 13.2621 23.3835 13.2619C18.3509 13.2619 18.6143 9.86499 15.2828 9.86499Z"></path>
<path fill="#006BFF" d="M27.6946 16.9851C26.8379 16.3577 25.8499 15.9329 24.8051 15.743C24.8051 15.7522 24.8051 15.7597 24.8051 15.7681C24.7152 16.2689 24.5747 16.7593 24.3858 17.2317C25.2488 17.3654 26.0677 17.7027 26.7745 18.2156C26.7745 18.2223 26.7703 18.2307 26.7678 18.2382C25.8581 21.1841 23.9218 23.7059 21.3108 25.3456C18.6999 26.9852 15.5874 27.634 12.5387 27.1739C9.49013 26.7139 6.70765 25.1756 4.69676 22.8385C2.68587 20.5014 1.57997 17.5206 1.57997 14.4374C1.57997 11.3543 2.68587 8.37345 4.69676 6.03635C6.70765 3.69926 9.49013 2.16097 12.5387 1.70094C15.5874 1.24091 18.6999 1.88965 21.3108 3.52932C23.9218 5.16898 25.8581 7.69079 26.7678 10.6366C26.7678 10.6442 26.772 10.6526 26.7745 10.6593C26.0678 11.1723 25.2489 11.5093 24.3858 11.6423C24.5745 12.1154 24.715 12.6063 24.8051 13.1076C24.8047 13.1154 24.8047 13.1233 24.8051 13.1311C25.8499 12.9414 26.8379 12.517 27.6946 11.8897C28.5183 11.28 28.3589 10.5914 28.234 10.1837C27.2156 6.88082 25.0461 4.05284 22.1198 2.21368C19.1934 0.374522 15.7043 -0.35377 12.2865 0.161149C8.86879 0.676067 5.74917 2.40002 3.49457 5.01975C1.23996 7.63948 0 10.9811 0 14.4374C0 17.8938 1.23996 21.2354 3.49457 23.8551C5.74917 26.4749 8.86879 28.1988 12.2865 28.7137C15.7043 29.2287 19.1934 28.5004 22.1198 26.6612C25.0461 24.822 27.2156 21.9941 28.234 18.6912C28.3589 18.2835 28.5183 17.5949 27.6946 16.9851Z"></path>
<path fill="#0AE8F0" d="M24.3808 11.6423C24.0511 11.697 23.7176 11.7251 23.3835 11.7261C21.1935 11.7261 20.3724 10.9973 19.4212 10.1543C18.5036 9.34074 17.3613 8.32837 15.2828 8.32837H14.0415C12.5384 8.32837 11.173 8.8744 10.195 9.86412C9.23964 10.8312 8.71375 12.1547 8.71375 13.5915V15.29C8.71375 16.7268 9.23964 18.0503 10.195 19.0174C11.173 20.0071 12.5384 20.5523 14.0415 20.5523H15.2828C17.3613 20.5523 18.5036 19.5408 19.4212 18.7272C20.3724 17.8885 21.1935 17.1554 23.3835 17.1554C23.7175 17.1555 24.051 17.1821 24.3808 17.2351C24.5701 16.7628 24.7106 16.2723 24.8001 15.7714C24.8006 15.7631 24.8006 15.7547 24.8001 15.7463C24.3315 15.6594 23.8559 15.6159 23.3793 15.6163C18.3468 15.6163 18.6102 19.0141 15.2786 19.0141H14.0373C11.7509 19.0141 10.2487 17.3802 10.2487 15.29V13.5882C10.2487 11.498 11.7509 9.86496 14.0373 9.86496H15.2786C18.6102 9.86496 18.3485 13.2611 23.3793 13.2611C23.8559 13.2619 24.3316 13.2184 24.8001 13.1311C24.8001 13.1235 24.8001 13.116 24.8001 13.1076C24.71 12.6063 24.5695 12.1154 24.3808 11.6423Z"></path>
<path fill="#006BFF" d="M24.3805 11.6425L24.3732 11.6237C24.242 11.298 24.0881 10.9818 23.9127 10.6776L22.4491 8.14209C21.7891 6.99907 20.8398 6.04991 19.6967 5.39002C18.5536 4.73013 17.2569 4.38276 15.937 4.38281H13.0089C11.689 4.38276 10.3924 4.73013 9.24928 5.39002C8.10618 6.04991 7.15691 6.99907 6.49689 8.14209L5.03327 10.6776C4.37347 11.8208 4.02612 13.1174 4.02612 14.4373C4.02612 15.7572 4.37347 17.0539 5.03327 18.197L6.49689 20.7326C7.15691 21.8756 8.10618 22.8248 9.24928 23.4846C10.3924 24.1445 11.689 24.4919 13.0089 24.4918H15.937C17.2569 24.4919 18.5536 24.1445 19.6967 23.4846C20.8398 22.8248 21.7891 21.8756 22.4491 20.7326L23.9127 18.2012C24.0881 17.897 24.242 17.5809 24.3732 17.2551L24.3807 17.2367C24.2938 17.2222 24.2065 17.2096 24.1191 17.1989C23.875 17.1701 23.6294 17.1557 23.3835 17.1556C21.2036 17.1556 20.3799 17.882 19.4343 18.7159L19.4212 18.7274C18.5036 19.541 17.3612 20.5526 15.2828 20.5526H14.0415C12.5384 20.5526 11.1729 20.0074 10.1949 19.0177C9.242 18.053 8.71635 16.7336 8.71373 15.301C8.71371 15.2962 8.71371 15.2914 8.71371 15.2866V13.5881C8.71371 12.1513 9.2396 10.8278 10.1949 9.86069C11.1729 8.87096 12.5392 8.32578 14.0415 8.32578H15.2828C17.3612 8.32578 18.5036 9.33731 19.4204 10.1509L19.4344 10.1633C20.3805 10.9969 21.2043 11.7227 23.3834 11.7227C23.6852 11.7226 23.9866 11.7009 24.2851 11.6576C24.317 11.6529 24.3488 11.6478 24.3805 11.6425Z" clip-rule="evenodd" fill-rule="evenodd"></path>
</g>
<defs>
<clipPath id="clip0_62_6035">
<rect fill="white" height="32.0005" width="132.603"></rect>
</clipPath>
</defs>
</svg>
