<svg xmlns="http://www.w3.org/2000/svg" fill="none" viewBox="0 0 124 38" height="38" width="124">
<path fill="url(#paint0_linear_62_6024)" d="M29.8942 10.7145L29.2011 9.50583C29.0909 9.3138 28.8967 9.18393 28.6761 9.15476C28.4554 9.12558 28.2338 9.20045 28.0768 9.35715L26.4827 10.9389C26.2424 11.1788 26.2053 11.5534 26.394 11.8351C26.9752 12.7173 27.4411 13.6693 27.7802 14.6683C29.0655 18.4569 28.4355 22.6284 26.0875 25.8758C23.7394 29.1232 19.9606 31.0492 15.935 31.0505C13.8922 31.0561 11.8798 30.56 10.0768 29.6064L12.773 26.9274C16.1914 28.2114 20.0526 27.2969 22.5195 24.6189C24.9864 21.9409 25.5608 18.0403 23.9695 14.7729C23.8693 14.5654 23.6739 14.4191 23.4455 14.3805C23.217 14.342 22.9839 14.4159 22.8203 14.5788L21.2067 16.1702C21.0318 16.3437 20.9599 16.5948 21.0168 16.8338L21.1555 17.4092C21.6429 19.4692 20.8542 21.6201 19.1471 22.8865C17.44 24.1528 15.1394 24.2936 13.2887 23.2449L12.5776 22.8401C12.2981 22.6803 11.9454 22.7272 11.7181 22.9544L5.13219 29.4935C4.98675 29.6379 4.91111 29.8377 4.92465 30.0415C4.93819 30.2453 5.0396 30.4334 5.20289 30.5577L6.17324 31.2969C8.97158 33.4385 12.4077 34.595 15.9405 34.5845C21.6643 34.5771 26.9527 31.5488 29.8264 26.6328C32.7002 21.7169 32.726 15.6544 29.8942 10.7145Z"></path>
<path fill="url(#paint1_linear_62_6024)" d="M25.8318 5.87237C23.0341 3.73046 19.5983 2.57367 16.0657 2.58418C10.3397 2.58867 5.0482 5.61671 2.17335 10.534C-0.701494 15.4514 -0.725799 21.5159 2.10955 26.4558L2.80257 27.6629C2.9132 27.8546 3.10743 27.9844 3.32801 28.0138C3.5486 28.0432 3.7704 27.9689 3.92804 27.8129L5.51923 26.2328C5.75775 25.9928 5.79473 25.6198 5.60794 25.3382C5.02619 24.4566 4.5604 23.5047 4.22189 22.5057C2.93669 18.7179 3.56666 14.5473 5.91442 11.3006C8.26217 8.0539 12.0405 6.12826 16.0657 6.127C18.1081 6.12241 20.12 6.61984 21.9218 7.57492L19.2245 10.2519C16.4817 9.21969 13.4033 9.59161 10.9898 11.2468C8.57628 12.902 7.13587 15.6291 7.13675 18.5417C7.13675 18.689 7.17695 19.3607 7.18942 19.4763C7.29872 20.4928 7.58332 21.4831 8.03075 22.4038C8.13128 22.6113 8.32686 22.7575 8.55546 22.7961C8.78405 22.8346 9.01729 22.7608 9.18118 22.5979L10.7945 20.9944C10.9692 20.8214 11.0416 20.5711 10.9858 20.3324L10.8472 19.7557C10.3592 17.6961 11.1477 15.5452 12.8549 14.2792C14.5621 13.0132 16.8629 12.8732 18.713 13.9227L19.4241 14.3273C19.7038 14.4857 20.0555 14.4389 20.2834 14.2131L26.8672 7.6754C27.0128 7.53093 27.0887 7.33116 27.0754 7.12717C27.0622 6.92318 26.961 6.73476 26.7979 6.6101L25.8318 5.87237Z"></path>
<path fill="#3D3652" d="M52.1681 22.699C51.9234 22.4956 51.5706 22.5039 51.3353 22.7186C50.3165 23.5274 49.1349 24.276 47.4078 24.276C44.246 24.276 41.6737 21.5516 41.6737 18.2002C41.6737 14.8488 44.2365 12.1005 47.3845 12.1005C48.752 12.1005 50.229 12.6896 51.3148 13.665C51.4387 13.812 51.6201 13.8951 51.8098 13.8917C51.9742 13.8783 52.1244 13.7912 52.2201 13.6538L53.2484 12.5707C53.3808 12.4397 53.4536 12.2581 53.4495 12.0697C53.4417 11.8784 53.3565 11.6989 53.2143 11.5744C51.4187 9.97354 49.6149 9.25989 47.3599 9.25989C42.5462 9.25989 38.6296 13.2927 38.6296 18.2491C38.6334 23.1824 42.5388 27.1817 47.3599 27.1894C49.5569 27.216 51.6734 26.3447 53.2402 24.7686C53.3778 24.6251 53.4527 24.4308 53.4481 24.2299C53.4444 24.0699 53.3773 23.9183 53.2621 23.8101L52.1681 22.699Z"></path>
<path fill="#3D3652" d="M59.6524 9.50305H58.0948C57.7341 9.51545 57.445 9.81258 57.4343 10.1817V26.274C57.4442 26.6436 57.7336 26.9416 58.0948 26.954H59.6524C60.0137 26.9416 60.303 26.6436 60.313 26.274V10.1817C60.3023 9.81258 60.0132 9.51545 59.6524 9.50305Z"></path>
<path fill="#3D3652" d="M78.0854 14.9198C78.0854 11.9337 75.6826 9.50305 72.7288 9.50305H66.3055C65.9403 9.50459 65.645 9.80799 65.645 10.1817V26.274C65.6443 26.6482 65.9398 26.9525 66.3055 26.954H67.8399C68.2011 26.9416 68.4905 26.6436 68.5004 26.274V20.289H71.7196L74.8033 26.607C74.9176 26.8178 75.1352 26.9482 75.3708 26.947H77.2115C77.4482 26.9551 77.671 26.8328 77.7955 26.6266C77.9138 26.4091 77.9138 26.1444 77.7955 25.9269L74.6666 19.9602C76.7808 18.9989 78.0854 17.0874 78.0854 14.9198ZM75.2067 14.9688C75.2067 16.4843 73.9855 17.7675 72.5401 17.7675H68.5483V12.2947H72.5346C73.9828 12.2947 75.2013 13.5191 75.2013 14.9688H75.2067Z"></path>
<path fill="#3D3652" d="M94.8498 22.699C94.6051 22.4956 94.2524 22.5039 94.017 22.7186C92.9982 23.5274 91.8167 24.276 90.0895 24.276C86.9278 24.276 84.3555 21.5516 84.3555 18.2002C84.3555 14.8488 86.9168 12.1005 90.0649 12.1005C91.4324 12.1005 92.9093 12.6896 93.9965 13.665C94.1211 13.8135 94.3044 13.8968 94.4957 13.8917C94.66 13.8783 94.8102 13.7912 94.9059 13.6538L95.9343 12.5707C96.0662 12.4395 96.1386 12.2579 96.1339 12.0697C96.1273 11.8784 96.0425 11.6986 95.9001 11.5744C94.1086 9.97354 92.3049 9.25989 90.0498 9.25989C85.2362 9.25989 81.3196 13.2927 81.3196 18.2491C81.3233 23.1824 85.2287 27.1817 90.0498 27.1894C92.2467 27.2157 94.3632 26.3444 95.9302 24.7686C96.0679 24.6247 96.1429 24.4298 96.138 24.2285C96.1345 24.0685 96.0673 23.9168 95.9521 23.8087L94.8498 22.699Z"></path>
<path fill="#3D3652" d="M109.176 24.2519H102.995V10.1817C102.984 9.81258 102.695 9.51545 102.334 9.50305H100.777C100.411 9.50459 100.116 9.80799 100.116 10.1817V26.274C100.115 26.6482 100.411 26.9525 100.777 26.954H109.176C109.352 26.9537 109.521 26.8818 109.645 26.7543C109.769 26.6267 109.838 26.4539 109.838 26.274V24.9376C109.84 24.7566 109.771 24.5824 109.647 24.4537C109.522 24.3249 109.353 24.2523 109.176 24.2519Z"></path>
<path fill="#3D3652" d="M123.168 12.2268C123.534 12.2253 123.829 11.9219 123.829 11.5481V10.1866C123.829 9.81288 123.534 9.50948 123.168 9.50793H113.733C113.367 9.50948 113.072 9.81288 113.072 10.1866V26.2788C113.071 26.6531 113.367 26.9574 113.733 26.9589H123.168C123.534 26.9574 123.83 26.6531 123.829 26.2788V24.9425C123.829 24.5688 123.534 24.2653 123.168 24.2638H115.921V19.4627H122.007C122.373 19.462 122.669 19.1583 122.669 18.7841V17.4239C122.659 17.0537 122.369 16.7556 122.007 16.7438H115.925V12.2268H123.168Z"></path>
<defs>
<linearGradient gradientUnits="userSpaceOnUse" y2="12.8352" x2="31.5723" y1="33.991" x1="10.2695" id="paint0_linear_62_6024">
<stop stop-color="#B090F5"></stop>
<stop stop-color="#5FBFFF" offset="1"></stop>
</linearGradient>
<linearGradient gradientUnits="userSpaceOnUse" y2="1.85329" x2="20.4133" y1="23.0047" x1="-0.888482" id="paint1_linear_62_6024">
<stop stop-color="#68D7FA"></stop>
<stop stop-color="#4EE498" offset="1"></stop>
</linearGradient>
</defs>
</svg>
