<svg xmlns="http://www.w3.org/2000/svg" fill="none" viewBox="0 0 142 32" height="32" width="142">
<path fill="#7663FA" d="M85.2256 29.1915V15.0272C85.3446 11.9325 86.7729 8.83776 88.9154 6.69526C94.0336 1.81512 102.247 1.81512 107.603 6.69526C109.864 8.83776 111.174 11.8134 111.293 15.0272V29.1915H104.27V15.6223C104.27 14.075 103.675 12.7657 102.604 11.6944C100.104 9.67095 96.5332 9.67095 94.1527 11.6944C93.0814 12.7657 92.4863 14.075 92.4863 15.6223V29.0725L85.2256 29.1915Z"></path>
<path fill="#7663FA" d="M73.7963 15.6228C73.7963 14.0754 73.2011 12.7661 72.1299 11.6949C69.7493 9.79041 66.0594 9.79042 63.6789 11.8139C62.6076 12.8851 62.0125 14.1944 62.0125 15.7418V16.694C62.0125 18.1224 62.6076 19.4317 63.5599 20.5029C64.6311 21.5742 65.9404 22.1693 67.4878 22.1693C68.9161 22.2883 70.2254 21.9312 71.4157 21.2171V28.5968C70.3444 29.1919 69.2732 29.43 68.0829 29.43C64.6311 29.549 61.1793 28.1207 58.7987 25.7401C56.5372 23.5976 55.2279 20.6219 55.1089 17.4082V15.3847C55.2279 12.29 56.5372 9.19528 58.7987 7.05278C61.2983 4.5532 64.6311 3.2439 68.2019 3.36293C71.6538 3.2439 75.1056 4.67223 77.4861 7.05278C79.7476 9.19528 81.0569 12.171 81.176 15.3847V29.549H74.0343L73.7963 15.6228Z"></path>
<path fill="#7663FA" d="M44.1593 13.7199C47.373 14.9102 49.5156 16.5766 50.3487 19.1952C51.1819 21.4567 50.9439 24.0753 49.5155 26.0988C48.2062 28.2413 46.0637 29.1935 42.969 29.1935H31.1853V21.9328H42.3739C42.969 21.8138 43.3261 21.4567 43.3261 21.0996C43.3261 20.6235 41.4217 19.7903 37.7318 18.362C34.399 17.0527 32.2565 15.3863 31.4233 12.7677C30.8282 10.5062 31.0662 7.88757 32.4946 5.98313C33.8039 4.07869 36.3035 3.12646 39.9933 3.12646H48.9204V10.3872H40.9455C39.9933 10.2681 39.2792 10.5062 39.1601 10.9823C39.0411 11.5774 39.3982 12.0535 40.4694 12.5297L44.1593 13.7199Z"></path>
<path fill="#7663FA" d="M22.3772 6.69676C19.8776 4.31621 16.5449 2.88787 13.0931 3.0069C9.52222 2.88787 6.18945 4.31621 3.68986 6.69676C1.42833 8.83926 0.119028 11.815 0 15.0287V17.0522C0.119028 20.1469 1.54736 23.2416 3.68986 25.3841C6.18945 27.8837 9.52222 29.193 12.974 29.074C16.4258 29.193 19.8776 27.7647 22.2582 25.3841C24.5197 23.2416 25.829 20.2659 25.9481 17.0522V15.0287C25.9481 11.934 24.6388 8.83926 22.3772 6.69676ZM18.9254 16.6951C18.9254 18.2424 18.3303 19.5517 17.259 20.623C16.0688 21.6942 14.5214 22.2894 12.974 22.2894C11.3076 22.4084 9.87931 21.6942 8.68903 20.623C7.61778 19.5517 7.02264 18.2424 7.02264 16.6951V15.7429C7.02264 14.1955 7.61778 12.8862 8.68903 11.8149C9.87931 10.7437 11.4267 10.1486 12.974 10.1486C14.6404 10.0295 16.0688 10.7437 17.259 11.8149C18.3303 12.8862 18.9254 14.1955 18.9254 15.7429V16.6951Z"></path>
<path fill="#7663FA" d="M138.429 6.69676C135.929 4.31621 132.597 2.88787 129.145 3.0069C125.574 2.88787 122.241 4.31621 119.742 6.69676C117.48 8.83926 116.171 11.815 116.052 15.0287V17.0522C116.171 20.1469 117.599 23.2416 119.742 25.3841C122.241 27.8837 125.574 29.193 129.026 29.074C132.478 29.193 135.929 27.7647 138.31 25.3841C140.571 23.2416 141.881 20.2659 142 17.0522V15.0287C142 11.934 140.81 8.83926 138.429 6.69676ZM134.977 16.6951C134.977 18.2424 134.382 19.5517 133.311 20.623C132.121 21.6942 130.573 22.2894 129.026 22.2894C127.359 22.4084 125.931 21.6942 124.741 20.623C123.67 19.5517 123.074 18.2424 123.074 16.6951V15.7429C123.074 14.1955 123.67 12.8862 124.741 11.8149C125.812 10.7437 127.478 10.1486 129.026 10.1486C130.692 10.0295 132.121 10.7437 133.311 11.8149C134.382 12.8862 134.977 14.1955 134.977 15.7429V16.6951Z"></path>
</svg>
