<svg xmlns="http://www.w3.org/2000/svg" fill="none" viewBox="0 0 137 32" height="32" width="137">
<g clip-path="url(#clip0_11229_4285)">
<path fill="#0A64FF" d="M8.74894 3.50638C5.44681 5.41277 3.06383 8.51064 2.0766 12.2213C1.19149 15.4894 1.49787 18.9277 2.92766 21.9574L1.53192 22.7404C-2.00851 15.3191 0.714895 6.33191 7.96596 2.14468C10.4511 0.680851 13.2085 0 15.8979 0C18.2809 0 20.5957 0.544681 22.7404 1.53191L21.9234 2.92766C20.0511 2.0766 18.0085 1.56596 15.8979 1.56596C13.4128 1.6 10.9277 2.24681 8.74894 3.50638ZM24.9532 2.82553L24.1362 4.22128C25.8043 5.41277 27.2681 6.94468 28.3234 8.78298C30.2298 12.0851 30.7404 15.966 29.7532 19.6426C28.766 23.3532 26.383 26.417 23.0809 28.3574C21.2766 29.4128 19.2681 30.0255 17.1915 30.2298V31.8298C19.4723 31.6596 21.7532 30.9787 23.8638 29.7532C31.4894 25.3617 34.0766 15.6255 29.6851 8C28.4936 5.85532 26.8255 4.11915 24.9532 2.82553ZM4.18724 24.1702L2.79149 24.9872C5.58298 29.0383 9.97447 31.4553 14.6043 31.8298V30.2298C10.4511 29.8213 6.60426 27.5745 4.18724 24.1702ZM27.9149 17.3277H26.3149C25.634 22.4681 21.2085 26.417 15.8979 26.417C10.1106 26.417 5.37872 21.7191 5.37872 15.8979C5.37872 12.4596 7.01277 9.42979 9.56596 7.5234L8.78298 6.12766C5.78723 8.34043 3.81277 11.9149 3.81277 15.9319C3.81277 22.6043 9.22553 28.017 15.8979 28.017C22.1277 28.017 27.234 23.3532 27.9149 17.3277ZM15.9319 3.81277C22.2298 3.81277 27.4043 8.61277 27.983 14.7745H26.383C25.8043 9.53192 21.3106 5.41277 15.9319 5.41277C14.4681 5.41277 13.0723 5.71915 11.8128 6.26383L10.9957 4.86808C12.4936 4.18723 14.1617 3.81277 15.9319 3.81277ZM20.3574 15.9319C20.3574 13.4809 18.3489 11.4723 15.8979 11.4723C13.4468 11.4723 11.4383 13.4809 11.4383 15.9319C11.4383 18.383 13.4468 20.3915 15.8979 20.3915C18.383 20.3915 20.3574 18.383 20.3574 15.9319ZM13.0383 15.9319C13.0383 14.366 14.3319 13.0723 15.8979 13.0723C17.4638 13.0723 18.7574 14.366 18.7574 15.9319C18.7574 17.4979 17.4638 18.7915 15.8979 18.7915C14.3319 18.7915 13.0383 17.4979 13.0383 15.9319ZM20.0511 8.74894C24 11.0298 25.3617 16.1021 23.0809 20.0511C21.5489 22.7064 18.7574 24.2043 15.8979 24.2043C14.9106 24.2043 13.8894 24.034 12.9362 23.6596L13.7532 22.2638C14.434 22.5021 15.183 22.6383 15.9319 22.6383C18.3149 22.6383 20.5277 21.3447 21.7191 19.3021C22.6043 17.7702 22.8426 15.966 22.4 14.2298C21.9234 12.4936 20.834 11.0638 19.2681 10.1787C18.2468 9.6 17.0894 9.29362 15.9319 9.29362C13.5489 9.29362 11.3362 10.5872 10.1447 12.6298C9.25957 14.1617 9.02128 15.966 9.46383 17.7021C9.80426 18.9957 10.5191 20.1532 11.5404 21.0043L10.7234 22.4C7.59149 19.8809 6.67234 15.3872 8.74894 11.8128C10.2809 9.15745 13.0723 7.65957 15.9319 7.65957C17.3277 7.62553 18.7574 8 20.0511 8.74894ZM42.3149 12.9362V22.2298C42.3149 23.183 42.5872 23.9319 43.166 24.4766C43.7447 25.0213 44.5277 25.2936 45.5489 25.2936H49.0553V22.5362H46.1957C45.583 22.5362 45.2766 22.2298 45.2766 21.583V12.9362H49.0553V10.1106H45.2766V5.68511H42.2808V10.1106H39.7277V12.9362H42.3149ZM55.4894 11.5745C55.7957 11.0979 56.1702 10.7574 56.5787 10.5191C57.0213 10.2809 57.6 10.1447 58.3149 10.1447H60.9702V12.9362H58.5872C57.6 12.9362 56.817 13.2085 56.2723 13.7532C55.7277 14.2979 55.4553 15.0809 55.4553 16.0681V25.3277H52.4596V10.1447H55.0128L55.3191 11.5745H55.4894ZM73.8723 19.0298C73.8723 19.7106 73.7021 20.3574 73.3617 20.9362C73.0213 21.5149 72.5447 21.9915 71.966 22.3319C71.3872 22.6723 70.7404 22.8426 70.0255 22.8426C68.9702 22.8426 68.1191 22.4681 67.4043 21.7532C66.6894 21.0383 66.3489 20.1191 66.3489 19.0298V10.1447H63.3532V19.2681C63.3532 20.5277 63.6255 21.617 64.1362 22.6043C64.6468 23.5574 65.3617 24.3064 66.2809 24.8511C67.2 25.3957 68.2213 25.6681 69.3787 25.6681C70.366 25.6681 71.2511 25.4979 72.034 25.1234C72.817 24.7489 73.4298 24.3064 73.8383 23.7957H73.9745L74.2809 25.3617H76.834V10.1447H73.8723V19.0298ZM87.1149 9.8383C88.4426 9.8383 89.6681 10.1447 90.7574 10.7915C91.8468 11.4383 92.6979 12.3234 93.3447 13.4468C93.9915 14.5702 94.2979 15.8298 94.2979 17.2596C94.2979 17.9745 94.2638 18.4851 94.1617 18.8596H82.6213C82.7574 20.0851 83.2681 21.1064 84.0851 21.8553C84.9362 22.6383 85.9574 23.0128 87.1149 23.0128C87.966 23.0128 88.7149 22.8085 89.3277 22.434C89.9745 22.0596 90.4511 21.5489 90.7574 20.9702H93.8553C93.3787 22.3319 92.5957 23.4213 91.4043 24.3064C90.2468 25.1915 88.783 25.634 87.0808 25.634C85.6851 25.634 84.3915 25.2936 83.2681 24.6128C82.1106 23.9319 81.2255 23.0128 80.5787 21.7872C79.9319 20.5957 79.5915 19.234 79.5915 17.7021C79.5915 16.2043 79.9319 14.8426 80.5787 13.6511C81.2255 12.4596 82.1447 11.5064 83.2681 10.8255C84.4596 10.1787 85.7191 9.8383 87.1149 9.8383ZM84.0851 13.583C83.2681 14.366 82.7574 15.3532 82.6213 16.5787H91.3702C91.2681 15.3872 90.8255 14.366 90.0425 13.583C89.2596 12.8 88.2723 12.3915 87.1149 12.3915C85.9234 12.3915 84.9021 12.8 84.0851 13.583ZM108.357 10.8255C107.302 10.1447 106.111 9.8383 104.817 9.8383C102.843 9.8383 101.277 10.5872 100.119 12.0851H99.983L99.6766 10.1447H97.1234V31.3872H100.119V23.4894H100.255C100.766 24.1702 101.413 24.6808 102.196 25.0553C102.945 25.4298 103.83 25.634 104.851 25.634C106.145 25.634 107.336 25.2936 108.391 24.6468C109.447 23.966 110.298 23.0468 110.911 21.8213C111.523 20.6298 111.83 19.234 111.83 17.7021C111.83 16.1702 111.523 14.8085 110.911 13.617C110.264 12.4255 109.413 11.5064 108.357 10.8255ZM108.221 20.4255C107.847 21.2085 107.302 21.8213 106.621 22.2298C105.94 22.6383 105.226 22.8766 104.443 22.8766C103.66 22.8766 102.945 22.6723 102.264 22.2298C101.583 21.8213 101.072 21.2085 100.664 20.4255C100.289 19.6426 100.085 18.7574 100.085 17.7362C100.085 16.7149 100.289 15.8298 100.664 15.0468C101.038 14.2638 101.583 13.6851 102.264 13.2426C102.945 12.834 103.66 12.5957 104.443 12.5957C105.226 12.5957 105.94 12.8 106.621 13.2426C107.302 13.6511 107.813 14.2638 108.221 15.0468C108.596 15.8298 108.8 16.7149 108.8 17.7362C108.8 18.7234 108.596 19.6426 108.221 20.4255ZM129.226 22.8426C130.213 22.8426 131.064 22.6043 131.745 22.0936C132.426 21.583 132.902 20.9021 133.174 20.017H136.17C135.796 21.6851 135.013 23.0128 133.787 24.0681C132.562 25.1234 131.03 25.634 129.226 25.634C127.83 25.634 126.536 25.2936 125.413 24.6128C124.255 23.9319 123.37 23.0128 122.723 21.7872C122.077 20.5957 121.736 19.234 121.736 17.7021C121.736 16.2043 122.077 14.8426 122.723 13.6511C123.37 12.4596 124.289 11.5064 125.413 10.8255C126.57 10.1447 127.83 9.80425 129.226 9.80425C131.064 9.80425 132.562 10.3149 133.787 11.3362C135.013 12.3574 135.796 13.6851 136.17 15.2851H133.174C132.902 14.434 132.426 13.7872 131.745 13.2766C131.064 12.8 130.213 12.5617 129.226 12.5617C128.409 12.5617 127.66 12.766 126.979 13.2085C126.298 13.617 125.753 14.2298 125.345 15.0128C124.936 15.7957 124.732 16.6809 124.732 17.7021C124.732 18.7234 124.936 19.6085 125.345 20.3915C125.753 21.1745 126.298 21.7872 126.979 22.1957C127.66 22.6383 128.409 22.8426 129.226 22.8426ZM117.447 3.50638C116.8 3.50638 116.289 3.74468 115.915 4.22128C115.609 4.5617 115.472 4.97021 115.472 5.48085C115.472 5.51489 115.472 5.58298 115.472 5.65106C115.506 6.1617 115.677 6.57021 116.017 6.91064C116.391 7.28511 116.868 7.45532 117.447 7.45532C118.026 7.45532 118.468 7.28511 118.843 6.91064C119.217 6.53617 119.387 6.09362 119.387 5.51489C119.387 4.93617 119.217 4.45957 118.843 4.08511C118.468 3.6766 118.026 3.50638 117.447 3.50638ZM115.949 12.9362H113.532V10.1106H118.911V25.2936H115.915V12.9362H115.949Z" clip-rule="evenodd" fill-rule="evenodd"></path>
</g>
<defs>
<clipPath id="clip0_11229_4285">
<rect fill="white" height="32" width="136.17"></rect>
</clipPath>
</defs>
</svg>
