<svg xmlns="http://www.w3.org/2000/svg" fill="none" viewBox="0 0 108 35" height="35" width="108">
<path fill="white" d="M15.58 2.76225C15.5324 2.87685 15.4786 3.23504 15.4604 3.55806C15.4354 4.00068 15.4007 4.14544 15.3193 4.14544C15.0534 4.14544 13.9656 3.64856 13.3968 3.26725C12.9414 2.96196 12.7498 2.87139 12.6888 2.93241C12.5908 3.03048 12.5783 3.75247 12.6673 4.17493L12.7296 4.46975L12.4781 4.42041C12.34 4.39328 11.6819 4.11164 11.0159 3.79461C8.84823 2.76271 8.80426 2.74854 7.76159 2.74573C6.8958 2.74338 6.83048 2.75445 6.36148 2.98144C5.25328 3.51789 4.698 4.46339 4.69853 5.81285C4.69891 6.76698 4.94102 7.59598 5.6086 8.92809C5.91103 9.53169 5.97331 9.71381 5.89453 9.76475C5.57546 9.97105 4.45499 10.1273 3.27239 10.1306C2.28543 10.1333 2.31585 10.0876 2.75041 10.9146C3.0122 11.4126 3.55188 11.9362 4.05463 12.18C4.44666 12.3701 4.47595 12.4558 4.18564 12.5633C4.07121 12.6058 3.53122 12.8652 2.98578 13.1399C2.26643 13.5022 1.8853 13.6499 1.59831 13.6775C1.36612 13.6999 1.18638 13.7578 1.16345 13.8177C1.11645 13.9402 1.46284 14.4287 1.79546 14.7088C2.11053 14.9742 2.63084 15.2004 3.06245 15.2597C3.32537 15.2958 3.4099 15.3397 3.4099 15.4405C3.4099 15.5137 3.36207 15.5921 3.30357 15.6145C3.14048 15.6772 2.76199 16.2674 2.62425 16.6738C2.55637 16.8739 2.43187 17.4683 2.34764 17.9945C2.26333 18.5207 2.12665 19.1046 2.04385 19.292C1.84224 19.7485 1.4527 20.2094 1.07339 20.4405C0.90227 20.5447 0.770736 20.6796 0.780953 20.7403C0.791245 20.8009 0.935722 20.9436 1.10199 21.0572C1.83187 21.5561 2.94522 21.6613 3.94391 21.3258C4.5639 21.1176 4.61771 21.1364 4.61967 21.5616C4.62202 22.0783 4.86299 23.0007 5.14967 23.5906C5.53103 24.3755 6.33848 25.2727 6.55916 25.1569C6.90276 24.9766 7.83273 24.8364 8.68468 24.8364C9.9886 24.8364 11.5926 25.1193 14.4935 25.8605C17.066 26.5179 18.7011 26.5093 21.3707 25.8244C23.0469 25.3944 24.7187 25.0418 25.7063 24.9099C26.6772 24.7802 28.2129 24.8473 28.8228 25.0461L29.2985 25.2012L29.6725 24.8207C30.4658 24.0136 30.8716 23.1599 31.0338 21.9563C31.0817 21.602 31.133 21.2724 31.148 21.2239C31.1671 21.1621 31.353 21.1924 31.7667 21.3246C32.4836 21.5536 33.3276 21.5815 33.8891 21.3947C34.313 21.2537 34.9691 20.8615 34.9691 20.749C34.9691 20.7084 34.8212 20.5732 34.6403 20.4486C34.203 20.1473 33.8516 19.7367 33.6719 19.3168C33.591 19.1278 33.4396 18.4763 33.3354 17.8689C33.122 16.6256 32.9287 16.1242 32.5101 15.7287C32.2217 15.4563 32.2056 15.2867 32.4681 15.2867C32.5445 15.2867 32.827 15.2187 33.0958 15.1355C33.6311 14.97 34.1595 14.5653 34.4455 14.102C34.636 13.7934 34.5745 13.7007 34.1745 13.6931C33.8837 13.6876 33.4129 13.5076 32.6987 13.1289C32.3865 12.9634 31.9619 12.7536 31.7552 12.6629C31.5485 12.5721 31.3674 12.4621 31.3528 12.4182C31.3383 12.3744 31.5043 12.2482 31.7219 12.1378C32.2195 11.8853 32.7734 11.3207 33.0305 10.8041C33.3618 10.1383 33.3926 10.1605 32.0743 10.1135C30.8862 10.0712 29.8421 9.89261 29.7761 9.72048C29.7562 9.66842 29.926 9.25384 30.1535 8.79932C30.8819 7.3442 31.1389 6.23811 30.9766 5.25699C30.7194 3.70222 29.7251 2.8097 28.1549 2.72375C27.2588 2.67472 26.8259 2.80311 25.0234 3.6525C24.1869 4.04669 23.3882 4.39207 23.2485 4.42011L22.9943 4.47096L23.0521 4.13771C23.1287 3.69608 23.1096 3.00077 23.0185 2.90959C22.972 2.86298 22.8122 2.93491 22.575 3.10923C22.1394 3.42952 20.8858 4.04782 20.5329 4.11649L20.2869 4.16439V3.71366C20.2869 3.25588 20.1005 2.55383 19.9789 2.55383C19.9422 2.55383 19.6899 2.77105 19.4182 3.03654C19.1465 3.30204 18.6838 3.68077 18.3899 3.8782L17.8556 4.23723L17.3333 3.88927C17.0459 3.69797 16.5756 3.31924 16.2881 3.04761C16.0007 2.77605 15.7432 2.55383 15.716 2.55383C15.6888 2.55383 15.6276 2.64766 15.58 2.76225ZM8.8922 4.17144C9.39435 4.40169 11.6699 5.81785 12.0872 6.15989C12.2603 6.30162 12.4731 6.56515 12.5603 6.74553C12.7507 7.13942 12.7713 7.81373 12.6052 8.21194C12.434 8.62227 12.4491 8.64326 12.8788 8.59233C13.4088 8.52943 13.907 8.27507 14.2831 7.8752C14.4567 7.69065 14.6317 7.55998 14.6719 7.58492C14.7121 7.60978 14.7689 7.7584 14.7982 7.91522C14.8649 8.27166 15.2019 8.99531 15.3229 9.04185C15.3728 9.06103 15.6501 8.9193 15.9393 8.72694C16.726 8.2036 18.464 7.37763 19.5099 7.02997C20.9577 6.54885 20.9565 6.61055 19.4995 7.58264C18.2856 8.39247 16.7931 9.4897 16.0564 10.1135C15.6838 10.4291 15.5355 10.512 15.4131 10.4729C14.3971 10.1489 13.836 10.15 12.9652 10.4781C10.1292 11.5464 7.86043 14.3994 8.04964 16.6596C8.10337 17.301 8.29628 17.749 8.71442 18.2033L9.03743 18.5542L8.86314 19.0237C8.53915 19.896 8.18367 21.2089 8.04245 22.0541C7.96518 22.5164 7.86513 22.9071 7.82002 22.9222C7.64686 22.9799 7.53455 22.3762 7.53463 21.3879C7.5347 20.5701 7.56444 20.3079 7.70952 19.8451C7.80564 19.5385 7.86573 19.2689 7.84295 19.2462C7.82017 19.2234 7.63975 19.3049 7.44199 19.4274C7.0349 19.6794 6.5709 20.2943 6.37859 20.8368C6.11052 21.5926 5.94168 21.1514 5.95144 19.7205C5.95697 18.9058 5.98285 18.7368 6.19945 18.0994C6.3325 17.708 6.42407 17.3705 6.40288 17.3493C6.33318 17.2794 5.42235 17.7759 5.04758 18.088C4.84528 18.2565 4.54127 18.5648 4.37197 18.7733C4.20274 18.9816 4.03988 19.1521 4.01006 19.1521C3.82343 19.1521 3.90592 18.1451 4.14174 17.5449C4.44591 16.7707 5.1583 15.9071 5.97331 15.3246C6.26491 15.1162 6.50558 14.9201 6.50816 14.8888C6.51073 14.8575 6.3829 14.832 6.22405 14.832C5.51665 14.832 4.19101 14.4179 4.25761 14.2178C4.27335 14.1705 4.49026 14.055 4.73955 13.9611C5.76466 13.5751 6.65006 13.0246 7.40029 12.3066C7.65942 12.0586 7.85324 11.8262 7.83099 11.7901C7.80874 11.754 7.5456 11.7241 7.24628 11.7236C6.663 11.7225 5.32941 11.4792 5.20076 11.3504C5.0783 11.2277 5.17359 11.1858 5.83686 11.0705C6.47629 10.9594 7.3962 10.6159 7.71694 10.3684L7.89933 10.2277L7.55544 9.70661C7.06986 8.97091 6.69925 8.20125 6.3798 7.265C6.14087 6.56477 6.10356 6.36112 6.10038 5.73706C6.0969 5.0782 6.1137 4.99233 6.29761 4.7257C6.527 4.3932 6.9017 4.11604 7.27693 4.00121C7.66601 3.88214 8.43879 3.96362 8.8922 4.17144ZM28.691 4.10603C29.4036 4.46627 29.7334 5.12406 29.6375 5.99429C29.5328 6.94388 28.8298 8.68639 28.1414 9.70214C27.9771 9.94452 27.861 10.1905 27.8832 10.2487C27.9785 10.4973 29.5877 11.1182 30.1367 11.1182C30.3808 11.1182 30.5796 11.1872 30.5796 11.2719C30.5796 11.4443 29.2147 11.723 28.3659 11.7239C28.058 11.7243 27.855 11.7564 27.855 11.8046C27.855 11.9212 28.5774 12.599 29.1053 12.9778C29.6426 13.3632 30.458 13.7888 31.0365 13.9857C31.2734 14.0663 31.4499 14.1718 31.4499 14.2325C31.4499 14.4003 30.6045 14.6973 29.8795 14.7842C29.5154 14.8279 29.2173 14.885 29.2173 14.911C29.2173 14.937 29.4057 15.0883 29.6358 15.247C30.6138 15.9216 31.4987 17.1041 31.7088 18.0173C31.7919 18.3784 31.8188 19.1521 31.7483 19.1521C31.725 19.1521 31.41 18.8532 31.0482 18.4879C30.5725 18.0076 30.2497 17.7543 29.882 17.5724C29.6024 17.4342 29.3407 17.3415 29.3003 17.3664C29.2564 17.3936 29.2854 17.5436 29.3724 17.7408C29.6623 18.397 29.7747 19.0058 29.7659 19.8721C29.7573 20.7094 29.6884 21.1296 29.5519 21.1752C29.5116 21.1887 29.3816 20.9768 29.2632 20.7044C29.0293 20.167 28.4983 19.5178 28.1409 19.3328C28.0175 19.2689 27.9012 19.2321 27.8824 19.251C27.8636 19.2699 27.9174 19.5502 28.0021 19.8739C28.2935 20.988 28.2764 22.2162 27.9585 23.0174L27.8532 23.2827L26.3759 23.2869C25.0694 23.2905 24.9038 23.2774 24.9441 23.1732C25.1337 22.6822 25.1444 21.7175 24.9615 21.6044C24.9197 21.5785 24.7009 21.7651 24.4752 22.0188C22.9108 23.7777 20.1321 24.8507 17.4488 24.7323C15.0055 24.6244 12.8113 23.6814 11.32 22.0982C10.9853 21.743 10.7879 21.5859 10.7384 21.6355C10.6085 21.7656 10.5763 22.3169 10.6706 22.797C10.7207 23.0515 10.7478 23.2733 10.731 23.2901C10.7142 23.3069 10.3372 23.2985 9.89324 23.2712L9.08602 23.2218V22.9685C9.08602 22.2647 9.75716 19.5422 10.0408 19.0952C10.1313 18.9526 10.2163 18.9247 10.5608 18.9247C11.0246 18.9247 11.6632 18.7109 11.9931 18.4451L12.2136 18.2675L11.3876 18.0937C10.2923 17.8633 10.2051 17.8272 10.2349 17.6172C10.2523 17.4948 10.3183 17.44 10.4693 17.4226C10.65 17.4018 12.1286 17.6447 12.5067 17.7573C12.5933 17.7831 12.6714 17.7253 12.7467 17.5796L12.8581 17.3637L11.8756 16.9967C10.7903 16.5914 10.5468 16.4436 10.6255 16.2381C10.7003 16.0429 11.0682 16.1083 12.2095 16.5198L13.176 16.8681L13.2982 16.6814C13.3654 16.5787 13.4072 16.4828 13.3912 16.4683C13.3751 16.4538 12.9874 16.231 12.5295 15.9732C12.0717 15.7156 11.6545 15.4491 11.6024 15.3812C11.4655 15.2025 11.486 15.0765 11.661 15.0209C11.7676 14.987 12.1181 15.1323 12.8154 15.4997L13.8166 16.0272L14.1745 15.7027C14.3714 15.5242 14.814 15.1921 15.1582 14.9648C15.882 14.4865 16.3774 13.9784 16.5905 13.4961C16.802 13.0174 16.7918 12.2377 16.5671 11.7149L16.3972 11.3192L16.805 10.9535C17.2708 10.5356 17.301 10.5502 17.3719 11.227C17.437 11.8485 17.5428 12.0957 17.7681 12.1523C18.0728 12.2289 18.2282 11.9971 18.3214 11.3266C18.465 10.2924 18.7986 9.57057 19.4004 8.99221C19.6886 8.71527 21.0809 7.70762 21.1754 7.70762C21.2115 7.70762 21.3544 7.82472 21.493 7.96789C21.7962 8.28121 22.3519 8.53306 22.8775 8.59544C23.2368 8.63803 23.2597 8.63106 23.2031 8.49653C22.9667 7.93462 22.9123 7.55324 23.0076 7.12661C23.0876 6.76865 23.1698 6.6304 23.4928 6.3111C23.7068 6.09956 24.2659 5.68779 24.7354 5.396C25.2049 5.1042 25.7668 4.75442 25.9841 4.61868C26.8175 4.09822 27.3725 3.91057 27.972 3.94649C28.2236 3.96157 28.5472 4.03335 28.691 4.10603ZM7.4457 5.32649C7.26512 5.50733 7.25301 5.56077 7.28699 6.02756C7.33074 6.62987 7.64073 7.41969 8.19056 8.33017C8.69664 9.16812 8.82598 9.29924 9.14672 9.29924C9.57659 9.29924 10.8883 8.22998 11.1417 7.67299C11.3145 7.29312 10.9752 6.90545 9.53617 5.83892C8.5561 5.11246 7.83576 4.93587 7.4457 5.32649ZM27.0105 5.3033C26.5296 5.5472 25.5068 6.29715 24.9756 6.79563C24.3738 7.3602 24.3664 7.54793 24.9224 8.1394C25.5271 8.78257 26.242 9.29924 26.5274 9.29924C26.8321 9.29924 26.9372 9.21261 27.3082 8.65501C27.9467 7.69572 28.4605 6.46063 28.4605 5.88523C28.4605 5.20348 27.7611 4.92276 27.0105 5.3033ZM20.7356 10.3075C18.9858 10.8047 18.3544 12.8353 19.532 14.1784C19.6574 14.3214 20.0744 14.6527 20.4586 14.9145C20.8428 15.1763 21.3275 15.5331 21.5356 15.7074L21.914 16.0243L22.805 15.5369C23.7484 15.0208 24.083 14.9251 24.131 15.1577C24.1745 15.3684 24.0343 15.4858 23.1511 15.9787C22.7003 16.2303 22.3168 16.4599 22.299 16.4889C22.2811 16.5178 22.3234 16.6163 22.393 16.7076L22.5195 16.8736L23.5726 16.497C24.7917 16.0611 25.0548 16.0275 25.0548 16.3079C25.0548 16.533 24.9614 16.5847 23.7493 17.0297C23.2603 17.2092 22.8601 17.3813 22.8601 17.412C22.8601 17.4428 22.9197 17.5376 22.9925 17.6228L23.125 17.7777L24.071 17.5914C25.1747 17.3741 25.461 17.3765 25.4935 17.6036C25.5228 17.8089 25.361 17.8781 24.3548 18.0905C23.9073 18.1851 23.5413 18.2835 23.5414 18.3093C23.5416 18.3889 24.168 18.7499 24.4778 18.8489C24.6567 18.9061 25.0107 18.9295 25.3859 18.9088C26.4029 18.8526 27.0373 18.4193 27.4654 17.4882C27.6252 17.1406 27.6584 16.9563 27.657 16.4236C27.6549 15.6517 27.5056 15.0983 27.0744 14.2661C26.2304 12.6369 24.5923 11.1857 22.8281 10.504C22.1158 10.2288 21.2866 10.1509 20.7356 10.3075ZM22.2003 11.3745C22.7142 11.5953 23.0871 12.1885 23.0871 12.785C23.0871 13.154 22.7976 13.6907 22.4838 13.9035C22.1347 14.1402 22.0541 14.1165 22.2828 13.8444C22.4689 13.623 22.6317 13.1924 22.6326 12.9198C22.6328 12.8477 22.5768 12.648 22.5081 12.4759C22.4093 12.2288 22.3691 12.1882 22.3164 12.2827C22.226 12.4445 21.7055 12.5757 21.3897 12.5163C21.2482 12.4898 21.0606 12.401 20.9727 12.319L20.8129 12.1698L20.7013 12.4374C20.5005 12.9186 20.6145 13.5078 20.9848 13.9025C21.1825 14.1132 21.1024 14.1227 20.7849 13.9262C20.3232 13.6405 20.0558 12.9092 20.207 12.3464C20.4315 11.5116 21.4096 11.0346 22.2003 11.3745ZM17.6019 13.6174C17.518 13.7103 17.4313 14.0068 17.3735 14.3989C17.2232 15.4178 17.0673 15.6485 16.034 16.3812C15.3955 16.8339 15.1436 17.2064 15.1418 17.7006C15.1393 18.3419 15.6153 18.9524 16.344 19.2428C16.7096 19.3885 16.9131 19.412 17.8272 19.4145C19.1116 19.418 19.5259 19.2995 20.071 18.7731C20.883 17.989 20.7094 17.0694 19.6101 16.3305C19.1158 15.9983 18.7066 15.5944 18.5431 15.2773C18.4652 15.1262 18.369 14.7413 18.3295 14.422C18.2225 13.5588 17.9386 13.2448 17.6019 13.6174ZM16.7268 17.38C17.0252 17.6316 17.1839 17.9375 17.1839 18.2615C17.1839 18.7267 16.896 18.8275 16.5059 18.4988C16.0876 18.1463 15.9016 17.5641 16.1222 17.2978C16.2628 17.1282 16.4596 17.1549 16.7268 17.38ZM19.6064 17.296C19.748 17.4668 19.6513 17.979 19.4203 18.2823C19.1724 18.6077 18.9634 18.7235 18.7295 18.6647C18.3458 18.5683 18.4369 17.9024 18.8968 17.4418C19.1748 17.1634 19.4497 17.1069 19.6064 17.296ZM13.1709 19.4954C13.0315 19.6637 13.1538 19.886 13.8151 20.6668C14.7432 21.7622 15.6047 22.4509 16.485 22.801C16.8553 22.9484 17.058 22.9737 17.8651 22.9737C18.9842 22.9737 19.3339 22.8653 20.2213 22.2435C21.1077 21.6224 22.529 20.0782 22.575 19.6864C22.6077 19.4078 22.3757 19.3131 22.0829 19.4855C20.6104 20.3524 20.0483 20.595 19.1748 20.7409C18.4487 20.8621 18.2536 20.7747 18.0804 20.2509C17.9181 19.76 17.7603 19.7241 17.6488 20.1527C17.5465 20.5464 17.5004 20.618 17.272 20.7385C16.8565 20.9578 15.5607 20.5819 14.292 19.874C13.8045 19.602 13.3744 19.3795 13.3364 19.3795C13.2982 19.3795 13.2238 19.4316 13.1709 19.4954ZM16.4271 21.2262C16.5842 21.2985 16.6203 21.3746 16.6394 21.6735C16.6571 21.949 16.634 22.0446 16.541 22.0804C16.4 22.1346 16.1135 21.8897 15.8852 21.5197C15.7601 21.3171 15.7487 21.2485 15.8249 21.1567C15.9207 21.041 16.06 21.0572 16.4271 21.2262ZM19.8934 21.2451C19.9235 21.4548 19.4574 22.0631 19.2429 22.0943C19.0882 22.1167 19.076 22.0882 19.076 21.7045C19.076 21.2977 19.081 21.2883 19.3598 21.1716C19.7164 21.0223 19.8644 21.0427 19.8934 21.2451Z" clip-rule="evenodd" fill-rule="evenodd"></path>
<path fill="white" d="M70.3012 0.676158C68.794 0.959964 63.6735 2.54114 63.4076 2.80496C63.3413 2.87063 61.8345 9.40008 61.8345 9.62141C61.8345 9.66669 62.3632 9.45536 63.0091 9.15166C64.6735 8.36922 65.8888 7.86079 66.9197 7.5154C68.772 6.8948 69.7088 7.26818 68.9822 8.33753C68.6748 8.78978 68.6531 9.31301 68.9312 9.56472C69.4262 10.0128 70.5728 9.82594 74.3554 8.68102C75.3314 8.38561 76.1298 8.17068 76.1298 8.20347C76.1298 8.23626 75.6012 8.79278 74.9552 9.44016L73.7806 10.6172L72.1226 18.0388L70.4647 25.4604L72.0151 25.488C72.8677 25.5032 73.5969 25.4807 73.6352 25.438C73.6736 25.3953 74.5716 21.4692 75.6308 16.7133C76.69 11.9573 77.5914 7.97265 77.6339 7.85839C77.7333 7.59148 78.9337 7.223 79.9519 7.14692C80.5999 7.09844 80.6985 7.11503 80.8652 7.30047C81.0033 7.45412 81.036 7.59427 80.9905 7.83729C80.7914 8.90124 80.7905 8.88715 81.0745 9.17115C81.3249 9.42157 81.391 9.43786 81.9614 9.39008C82.4456 9.34949 83.0703 9.13057 84.8769 8.36842C89.993 6.21003 91.4297 5.81686 94.1998 5.81686H95.4608L95.1784 5.52206C94.8075 5.13489 93.7374 4.57987 92.9243 4.35294C91.8592 4.05574 89.1712 4.10472 87.4261 4.45331C85.54 4.82999 84.7059 4.89187 84.3814 4.67924C84.0544 4.46501 84.0539 4.09663 84.3797 3.5676C84.6932 3.05857 84.6917 2.78326 84.3742 2.53354C83.828 2.10389 82.7063 2.16996 80.3065 2.77307C79.5522 2.9626 78.8719 3.11775 78.7947 3.11775C78.6542 3.11775 78.6629 3.06057 79.0809 1.24337L79.1326 1.01844H77.5352H75.9376L75.8422 1.39332C75.7897 1.59955 75.6496 2.21805 75.5308 2.76787C75.412 3.31769 75.295 3.83891 75.2709 3.92608C75.2424 4.02905 74.9618 4.15081 74.4721 4.27277C73.7916 4.44221 73.6905 4.44591 73.4489 4.31076C73.0631 4.09493 73.0682 3.80253 73.4728 2.95061C73.6696 2.53624 73.8304 2.0558 73.8302 1.88276C73.8297 1.4619 73.5139 0.967261 73.1102 0.755131C72.6702 0.523907 71.3126 0.485721 70.3012 0.676158ZM38.753 2.46947C38.4564 2.55284 38.0413 2.71808 37.8304 2.83664C37.4072 3.07446 37.4644 2.93211 36.7944 5.41699C36.5943 6.15925 36.4079 6.84492 36.3802 6.94059C36.337 7.09054 36.3994 7.07984 36.8305 6.86331C37.9987 6.27651 39.2556 6.2926 41.7971 6.92679C42.7285 7.15922 43.5228 7.37645 43.5622 7.40954C43.6393 7.47431 41.2507 17.7707 40.7522 19.5225C40.1779 21.5401 39.2527 24.1097 38.7355 25.1236L38.536 25.5146L40.51 25.4875L42.484 25.4604L42.854 24.3607C43.4279 22.6546 43.8885 21.0242 44.7418 17.6771C45.1743 15.9805 45.5533 14.5672 45.584 14.5365C45.6148 14.5058 45.6405 14.6119 45.6412 14.7722C45.6419 14.9327 45.7312 17.1556 45.8398 19.7123C45.9484 22.2689 46.0377 24.6194 46.0384 24.9356L46.0397 25.5104H47.429H48.8181L51.4504 20.4552C52.8981 17.6749 54.0961 15.4408 54.1127 15.4905C54.1292 15.5401 53.8701 16.7465 53.5369 18.1713C52.7979 21.3304 52.638 22.2827 52.6397 23.511C52.6432 25.9433 53.6116 27.8129 55.278 28.6034C56.9971 29.4192 58.9796 29.2093 59.9762 28.1062C60.414 27.6217 60.4245 27.5097 60.0319 27.5097C59.5914 27.5097 58.5674 27.1413 58.0846 26.8091C56.5609 25.7608 56.0668 23.9826 56.4841 21.0479C56.6659 19.7693 56.8673 18.8645 58.9167 10.1154L60.5909 2.9678L58.6889 2.94061C57.1253 2.91822 56.7689 2.93891 56.6865 3.05707C56.6313 3.13615 54.8543 6.50723 52.7375 10.5484C50.6207 14.5896 48.8718 17.879 48.851 17.8583C48.8088 17.8163 48.4487 5.54395 48.4428 3.94758L48.439 2.92801L48.0918 3.07307C47.9008 3.15284 47.4045 3.2687 46.9888 3.33058C46.0001 3.47763 44.9408 3.34238 42.925 2.81165C41.1058 2.33261 39.6607 2.21415 38.753 2.46947ZM86.0266 10.6756C85.9441 10.6901 85.7192 10.728 85.5267 10.76C84.978 10.8512 84.914 10.9236 85.0319 11.3201C85.0883 11.5098 85.1363 12.1373 85.1387 12.7146C85.1429 13.7021 85.0684 14.0987 83.88 19.4124C83.1853 22.5188 82.5919 25.1617 82.5614 25.2854L82.506 25.5104H84.1145C85.7003 25.5104 85.7236 25.5072 85.775 25.2854C85.8038 25.1617 86.1868 23.4609 86.6262 21.5059C87.5838 17.2442 87.9246 16.1782 88.5971 15.3415C89.1982 14.5938 90.1196 14.371 90.5178 14.8774C90.8474 15.2963 90.7808 15.9771 90.1147 18.9956C89.7791 20.5169 89.4553 22.2457 89.3951 22.8375C89.0597 26.1379 90.4695 28.4172 93.0915 28.8138C94.345 29.0034 95.3518 28.695 96.0682 27.902L96.4494 27.48L95.8115 27.3193C93.8158 26.8164 92.8243 25.2999 92.8243 22.7502C92.8243 21.5918 92.961 20.7198 93.5903 17.8629C94.007 15.9707 94.1423 15.1574 94.1471 14.514C94.1587 12.9765 93.6598 11.9267 92.6777 11.4213C92.2708 11.2119 92.0489 11.1678 91.4271 11.173C90.4902 11.1808 89.828 11.4626 89.0126 12.2002L88.4497 12.7093L88.3866 12.3939C88.2709 11.8152 87.8696 11.2703 87.3586 10.998C86.8975 10.7521 86.3475 10.6191 86.0266 10.6756ZM98.0226 10.6848C97.4009 10.7883 97.1081 10.9327 97.1804 11.1001C97.2196 11.1909 97.2718 11.8049 97.2965 12.4647L97.3414 13.6643L96.5225 17.3131C95.5667 21.5713 95.4656 22.4559 95.8064 23.578C96.2183 24.934 97.1238 25.5719 98.518 25.4886C99.3777 25.4372 99.8968 25.2179 100.658 24.5844L101.144 24.1797L101.075 24.5202C100.521 27.2288 99.8292 28.6651 98.5033 29.8571C96.7022 31.4764 93.9702 31.9329 91.3483 31.0528C90.0941 30.6318 89.0359 29.8384 88.1226 28.6344L87.6487 28.0096L87.6006 28.3345C87.5283 28.823 87.7068 30.0527 87.9335 30.6281C88.6065 32.3352 90.2696 33.7185 92.3802 34.3262C93.0642 34.5232 93.4025 34.5548 94.8236 34.5545C96.4283 34.5542 96.4989 34.5452 97.4228 34.2258C100.263 33.2436 102.494 30.8951 103.47 27.8596C103.706 27.1266 107.22 11.5616 107.22 11.2507C107.22 11.1423 106.903 11.1151 105.639 11.1151H104.059L103.335 14.439C102.506 18.2418 102.144 19.5741 101.708 20.4388C101.278 21.2896 101.035 21.5938 100.563 21.8714C100.049 22.1734 99.7075 22.1755 99.3623 21.8785C98.9003 21.4811 98.9249 20.9123 99.5153 18.3435C100.612 13.571 100.745 12.6672 100.445 12.0025C100.212 11.4848 99.8059 11.0803 99.3222 10.8832C98.8985 10.7105 98.3608 10.6285 98.0226 10.6848ZM60.3398 16.2384C59.0883 21.8778 59.0128 22.4626 59.383 23.6399C59.6006 24.3314 60.2077 25.0621 60.781 25.3226C61.6329 25.7095 63.0585 25.4969 63.8964 24.8579C64.0891 24.7108 64.2656 24.6093 64.2886 24.6322C64.3115 24.6551 64.286 24.8281 64.232 25.0165C64.178 25.205 64.1338 25.3931 64.1338 25.4347C64.1338 25.4764 64.918 25.5104 65.8765 25.5104C67.45 25.5104 67.6241 25.4934 67.6704 25.3354C67.6986 25.2393 68.4021 22.1015 69.2336 18.3627C70.0651 14.624 70.7698 11.4638 70.7994 11.34L70.8533 11.1151H69.2538H67.6543L67.5906 11.3689C67.5555 11.5086 67.1719 13.2087 66.738 15.147C66.3043 17.0853 65.8515 18.9617 65.732 19.3167C65.2131 20.8592 64.5452 21.8102 63.8305 22.0243C63.0234 22.2661 62.5971 21.8818 62.6197 20.9329C62.6272 20.619 63.0985 18.2815 63.6672 15.7386L64.7012 11.1151H63.0889H61.4768L60.3398 16.2384ZM79.6782 11.2401C79.6071 11.442 76.5297 25.2839 76.5297 25.4024C76.5297 25.4752 77.0453 25.5104 78.111 25.5104H79.6921L81.1154 19.1375C81.8981 15.6324 82.6213 12.3935 82.7222 11.9398L82.9059 11.1151H81.3141C80.1309 11.1151 79.711 11.1472 79.6782 11.2401Z" clip-rule="evenodd" fill-rule="evenodd"></path>
</svg>
