<?xml version="1.0" encoding="utf-8"?>
<!-- Generator: Adobe Illustrator 28.1.0, SVG Export Plug-In . SVG Version: 6.00 Build 0)  -->
<svg version="1.1" xmlns="http://www.w3.org/2000/svg" xmlns:xlink="http://www.w3.org/1999/xlink" x="0px" y="0px"
	 viewBox="0 0 1080 1080" style="enable-background:new 0 0 1080 1080;" xml:space="preserve">
<style type="text/css">
	.st0{fill-rule:evenodd;clip-rule:evenodd;}
</style>
<g id="New_Layer">
	<path class="st0" d="M-1143.2,280.6c-1,0.6-28.8,43.3-37.8,57.9c-2.3,3.7-3.6,6.9-3.2,7.8c0.6,1.6,2.8,5.1,28.1,44.3
		c6.4,10,12.6,18.7,13.6,19.2c4.5,2.5,10.9-0.5,10.9-5c0-1.1-7.5-13.6-16.6-27.8c-9.2-14.1-17.5-27.1-18.6-28.8l-1.8-3.1l18.5-28.8
		c10.5-16.3,18.5-29.7,18.5-31.1c0-1.2-1-3-2.2-3.8C-1136.1,279.7-1141.3,279.3-1143.2,280.6z"/>
	<path class="st0" d="M-252.6,281.8c-3.4,3.4-4.2,1.7,17.5,35.5c9.2,14.3,16.9,26.5,17.2,27.2c0.3,0.7-6,11.3-13.9,23.5
		c-20.4,31.4-22.8,35.3-22.8,37.1c0,2.1,4.7,5.7,7.4,5.7c1.2,0,3.1-0.7,4.3-1.5c3.2-2.2,41.3-61.5,41.3-64.3
		c0-1.6-37.4-60.6-40.2-63.4C-244.3,279.1-250.1,279.3-252.6,281.8z"/>
	<path class="st0" d="M107.3,520.6c-1,0.6-28.8,43.3-37.8,57.9c-2.3,3.7-3.6,6.9-3.2,7.8c0.6,1.6,2.8,5.1,28.1,44.3
		c6.4,10,12.6,18.7,13.6,19.2c4.5,2.5,10.9-0.5,10.9-5c0-1.1-7.5-13.6-16.6-27.8c-9.2-14.1-17.5-27.1-18.6-28.8l-1.8-3.1l18.5-28.8
		c10.5-16.3,18.5-29.7,18.5-31.1c0-1.2-1-3-2.2-3.8C114.4,519.7,109.2,519.3,107.3,520.6z"/>
	<path class="st0" d="M997.9,521.7c-3.4,3.4-4.2,1.7,17.5,35.5c9.2,14.3,16.9,26.5,17.2,27.2c0.3,0.7-6,11.3-13.9,23.5
		c-20.4,31.4-22.8,35.3-22.8,37.1c0,2.1,4.7,5.7,7.4,5.7c1.2,0,3.1-0.7,4.3-1.5c3.2-2.2,41.3-61.5,41.3-64.3
		c0-1.6-37.4-60.6-40.2-63.4C1006.2,519,1000.4,519.2,997.9,521.7z"/>
	<path class="st0" d="M-259,313.3c-0.9,1.5-23.6,63-23.6,64c0,0.9,5.5,1.1,6.3,0.1c0.8-0.8,23.7-62.6,23.7-63.8
		C-252.6,312.4-258.2,312.1-259,313.3z"/>
	<path class="st0" d="M714.8,550.3c-4.7,0.9-9.7,3.6-12.7,6.9c-2.6,2.8-4.4,10.7-3.4,14.9c1.7,7.8,6.4,11.1,20.4,14.6
		c10.9,2.7,14.2,4.4,15.1,8c1.9,7.7-10.8,12.2-20.6,7.2c-3.4-1.6-4.7-3-5.5-5.5c-0.9-3.1-1-3.2-6.7-3.2c-6.6,0-6.6,0.2-4.2,7.3
		c3.2,9.3,13.3,14.3,27.4,13.5c6-0.4,8.7-1,12.3-3.1c10.8-6.4,11.6-23.3,1.5-29.5c-1.9-1.2-8.2-3.4-14.1-5
		c-11.7-3.2-14.7-5.1-14.7-9.2c0-3.8,3.2-6.2,9-6.8c6.6-0.6,10.9,1.2,12.6,5.5c1.4,3.2,1.6,3.3,6.9,3.3c6.3,0,6.7-0.8,3.6-7.5
		C737.7,552.7,726.5,548,714.8,550.3z"/>
	<path class="st0" d="M990.2,550c-0.9,1.5-23.6,63-23.6,64c0,0.9,5.5,1.1,6.3,0.1c0.8-0.8,23.7-62.6,23.7-63.8S991,548.8,990.2,550z
		"/>
	<path class="st0" d="M116.6,581.8v31.4h3.5h3.5v-11v-11h9.6c5.3,0,11.5-0.5,13.7-1.2c11-3.3,16.8-16.6,11.8-27.3
		c-4.3-9.3-10-11.8-28.3-12.1l-13.8-0.2V581.8z M146.4,559.2c7,4.3,9.2,12.8,4.9,19.1c-3.5,5.3-7.7,6.9-18.4,6.9h-9.3v-14v-14h9.8
		C141.3,557.2,143.7,557.6,146.4,559.2z"/>
	<path class="st0" d="M949.2,551.2c-0.2,0.3-0.2,4.9-0.2,10.3c0.1,8.3-0.1,9.7-1.4,9.3c-0.8-0.2-3.5-1.2-6-2.1
		c-7.6-2.8-16.7,0-22.7,6.9c-9.4,10.6-6,28.2,6.6,34.8c5.1,2.7,5.9,2.8,19.7,2.8h14.4v-4.9v-4.9l-13.9-0.4c-16-0.3-18.5-1.4-21-8.5
		c-1.8-5.1-0.9-8.7,3.4-13c2.7-2.7,4-3.3,7.7-3.3c8.3,0,12.8,4.4,13.1,12.8c0.1,2.9,0.4,5.3,0.7,5.3c2.2,0.6,5.9,0.7,7.8,0.3
		l2.2-0.4l-0.2-22.8l-0.3-22.7h-4.8C951.6,550.6,949.3,550.9,949.2,551.2z"/>
	<path class="st0" d="M183.6,568.4c-5,1.4-9.7,5.3-12.2,10.1c-1.8,3.6-2.2,6.2-2.4,18c-0.2,7.6,0,14.5,0.3,15.3s1.8,1.4,3.4,1.4h2.9
		v-14.1c0-18.5,2-22.9,11.3-24.8c2.7-0.6,3.2-1.1,3.2-3.6C190,567.3,188.8,566.9,183.6,568.4z"/>
	<path class="st0" d="M209.6,568.8c-7.9,2.8-14.2,10.5-15.6,19.2c-0.4,2.5,0,6.1,1.1,9.8c5,17.5,27.8,22.3,39.7,8.5
		c6.5-7.7,7.5-18.8,2.3-27.6c-3-5.2-7-8.2-13.2-10.1C218.1,566.8,215.3,566.9,209.6,568.8z M226,576.5c9.5,5.4,10.6,20.8,2,27.6
		c-12.1,9.5-28.4,0.7-27.2-14.6C201.9,576.9,214.9,570.1,226,576.5z"/>
	<path class="st0" d="M320.8,568.2c-4.8,1.1-9.8,5-12.4,9.5c-2.1,3.6-2.3,5.5-2.6,19.8l-0.4,15.8l3.3-0.3l3.3-0.3l-0.2-12
		c0-6.6,0.3-13.7,0.8-15.9c1.1-5.2,5.5-9.5,10.2-10.2c3.5-0.6,3.8-0.9,3.8-4C326.6,567,326.3,566.9,320.8,568.2z"/>
	<path class="st0" d="M404.2,568.6c-5.6,2.1-8.8,4.7-11.4,9.3c-2,3.7-2.3,5.6-2.5,19.7l-0.3,15.6h3.3h3.3v-14.1
		c0-11.1,0.4-14.8,1.7-17.6c2.2-4.8,6.6-7.3,12.8-7.3c6.2,0,10.6,2.5,12.8,7.3c1.3,2.8,1.7,6.5,1.7,17.7v14.1l3.1-0.3l3.1-0.3
		l0.2-14.5c0.1-12.2,0.4-15,1.9-17.3c5.7-8.7,19.6-8.9,25.2-0.3c1.3,2,1.7,5.4,1.8,17.5l0.1,15.1h3.3h3.3v-13.8
		c0-7.5-0.5-15.5-1.1-17.7c-2.2-7.7-11.5-14.5-20-14.5c-4.3,0-11.2,2.9-14.5,6.1l-3,2.9l-2-2.1C422,568.6,411.2,566,404.2,568.6z"/>
	<path class="st0" d="M493.4,568.7c-5.7,1.9-11.1,7.8-12.7,14c-0.6,2.4-1.1,10.3-1.1,17.4v13.1h3.5h3.5v-14.8
		c0-16.5,1-19.6,7.1-22.8c4.6-2.4,13.1-1.5,16.5,1.7c4.6,4.2,5.4,7.7,5.4,22.4v13.5h3h3v-13.5c0-14.7,0.8-18.2,5.4-22.4
		c3.4-3.2,11.9-4.1,16.5-1.7c6.1,3.2,7.1,6.3,7.1,22.8v14.8h3.5h3.5v-13.1c0-7.1-0.5-15.1-1.2-17.7c-2.4-9.5-13.6-16.6-23.6-14.7
		c-4.4,0.8-11.7,4.8-13.2,7.3c-0.9,1.6-1.1,1.6-2,0c-1.8-3-9.6-6.8-14.6-7.3C500.1,567.4,496.1,567.9,493.4,568.7z"/>
	<path class="st0" d="M582.5,568.7c-9.3,2.9-15.3,11.7-15.3,22.5c0,7.6,2.4,13,7.8,17.7c4.8,4.3,9.6,5.7,17.4,5
		c7.3-0.6,13-3.8,16.9-9.6c3-4.4,2.9-5.1-0.8-5.1c-2.2,0-3.9,1-6.2,3.4c-9,9.5-25.2,5.6-28.2-6.7l-0.7-2.7h20.2h20.3l-0.7-4.6
		c-1.3-9.8-7.4-17.4-15.9-19.9C591.2,566.9,588.5,566.9,582.5,568.7z M597.4,575.6c3.5,1.8,6.8,5.4,8.1,8.8l1.1,2.8H590h-16.5
		l0.7-2.3c1.1-3.7,4.2-7.3,7.6-9C585.9,573.9,593.8,573.7,597.4,575.6z"/>
	<path class="st0" d="M637.2,568.7c-5.6,2-8.7,4.5-11.4,9.3c-2.1,3.8-2.3,5.5-2.5,19.4l-0.1,15.3l3.2,0.3l3.2,0.3v-14.1
		c0-10,0.4-15.1,1.4-17.5c1.6-3.7,6.7-7.5,10.3-7.5c2.8,0,3.7-1.4,2.9-4.6C643.5,566.9,642.6,566.7,637.2,568.7z"/>
	<path class="st0" d="M263.2,569.7c-10.5,3.7-16.6,13.6-15.3,24.7c1,8.5,6.4,15.4,14.4,18.4c6.1,2.4,15.1,1.4,20.5-2.1l4.1-2.7
		l-0.5,4.5c-1,8.6-6.9,13.8-15.9,13.9c-5.8,0-10.5-2.4-13.4-7c-1.6-2.4-2.7-3.1-5.2-3.2c-1.8,0-3.3,0.2-3.3,0.5
		c0,2,4.5,8.8,7.5,11.3c12.2,10,30.7,4.6,36.1-10.5c0.9-2.5,1.3-8.9,1.4-19.1v-15.2h-3.4h-3.4l-0.4,7.4c-0.4,9-2.2,12-9.1,15.5
		c-3.8,1.9-5.6,2.2-9.2,1.7c-11.5-1.8-17.7-15.6-11.3-25.4c4.1-6.2,7.4-7.2,23.2-7.2h13.6v-3.5v-3.5h-13.2
		C271.6,568.3,265.8,568.8,263.2,569.7z"/>
	<path class="st0" d="M347.6,569.1c-14.5,4.5-21,19-14.6,32.6c2.8,6,4.6,7.7,11.1,10.6c7.1,3.1,16,2.3,22.3-2.1
		c4.3-3,4.6-3.1,5.9-1.4c1.9,2.6,6.5,5.4,9.1,5.4c1.8,0,2.2-0.6,2.2-2.9c0-2.2-0.6-3.1-2.9-4.1c-4-1.6-4.4-3-4.6-14l-0.1-9.5
		l-3.2-0.3l-3.2-0.3v5.8c0,8.2-3.1,14.1-9,17c-5.5,2.8-9.2,2.9-14.6,0.2c-8.2-3.9-11.4-13.8-7.2-21.8c4-7.8,5.8-8.6,22.3-8.9
		c14.9-0.4,15.7-0.6,15.1-4.8c-0.3-1.7-1.5-1.9-13.2-2.1C355.9,568.4,349,568.7,347.6,569.1z"/>
	<path class="st0" d="M660.2,569.7c-7.9,2.8-11.6,9.6-9.1,16.9c1.9,5.5,3.7,7,14.9,12.7c10.9,5.5,15.6,9.2,15.6,12.1
		c0,1.4,0.8,1.8,3.5,1.8c3.9,0,4.1-0.6,2.1-5.3c-1.8-4.5-6.3-8-16.9-13.3c-10.2-5.2-13.7-8.2-13.7-11.9c0-9.2,19-11.3,22.3-2.5
		c1,2.5,1.7,3,4.5,3c3.2,0,3.4-0.2,2.8-2.8C683.9,570.8,671.5,565.7,660.2,569.7z"/>
	<path class="st0" d="M770.6,569.1c-10.6,3.3-17.2,11.7-17.2,22c0,17.1,16,27.9,31,21.1l4.2-1.9v10.4v10.5h5.5h5.6l-0.1-21.6
		c-0.1-11.9-0.4-22.2-0.7-23c-0.3-0.9-2.1-1.4-5.4-1.4h-4.9v4.7c0,2.7-0.6,5.9-1.3,7.3c-1.7,3.4-7.4,7-11.2,7c-3.8,0-9.5-3.6-11.2-7
		c-1.7-3.4-1.6-8.5,0.2-12c2.5-4.9,5.8-5.9,19.8-6.1c6.9-0.1,13-0.5,13.5-0.8c1-0.7,1.3-3.4,0.5-7.4l-0.5-2.7l-12.6,0.1
		C778.8,568.3,772,568.7,770.6,569.1z"/>
	<path class="st0" d="M808.6,583.4c0,16.6,1.1,20.9,6.1,25.5c7.7,7,22.1,7,29.8,0c5-4.6,6.1-8.9,6.1-25.5v-15.2h-5h-5v13.4
		c0,7.3-0.5,14.7-1.1,16.4c-1.4,4-4.9,6.2-9.9,6.2s-8.5-2.2-9.9-6.2c-0.6-1.7-1.1-9.1-1.1-16.4v-13.4h-5h-5V583.4z"/>
	<path class="st0" d="M875.6,569.1c-10.7,3.3-17.1,11.5-17.1,21.9c-0.1,9.9,4.1,16.9,12.5,20.8c7.2,3.3,13.7,3.2,21-0.4
		c4.9-2.5,5.8-2.7,6.9-1.4c1.5,1.9,6.9,4.2,9.7,4.2c1.7,0,2-0.6,2-5c0-3.7-0.4-5-1.4-5c-0.8,0-2.4-1.2-3.6-2.7
		c-1.7-2.2-2.1-3.9-1.9-9.3l0.3-6.5l-5.2-0.3l-5.2-0.3v4.8c0,2.6-0.6,5.9-1.3,7.3c-1.7,3.4-7.4,7-11.2,7c-3.8,0-9.5-3.6-11.2-7
		c-1.7-3.4-1.6-8.5,0.2-12c2.7-5.1,6.2-6.2,20.5-6.1c14.1,0.1,13.7,0.3,13.6-6.4l-0.1-4l-13-0.2C883.9,568.4,877,568.7,875.6,569.1z
		"/>
	<path class="st0" d="M651.2,607.3c-1.5,2.2-1.1,4.8,0.8,6.1c2.1,1.4,5.5,0.8,6.6-1.1c1.4-2.7,1.3-3.7-0.6-5.5
		C655.8,604.6,653,604.8,651.2,607.3z"/>
	<g>
		<text transform="matrix(1.007 0 0 1 -1140.3453 371.8431)"><tspan x="0" y="0" style="stroke:#FFFFFF;stroke-width:0.1;stroke-miterlimit:10; font-family:'Surgena-Regular'; font-size:89px;">Programmers</tspan><tspan x="504.4" y="0" style="stroke:#FFFFFF;stroke-width:0.1;stroke-miterlimit:10; font-family:'SurgenaPersonaluseonly-SemBd'; font-size:89px;">SQUAD</tspan></text>
	</g>
</g>
<g id="MasterLayer_1">
</g>
</svg>
