<svg xmlns="http://www.w3.org/2000/svg" fill="none" viewBox="0 0 74 35" height="35" width="74">
<g clip-path="url(#clip0_62_7003)">
<path fill="black" d="M72.7512 18.9907C72.3903 18.9907 72.0766 19.1782 71.7766 19.3629C71.7766 19.3629 71.2519 19.6735 71.027 19.805C69.7749 20.5298 68.4754 20.9691 67.0844 20.8544C66.3015 20.79 65.5712 20.597 64.9493 20.1492C64.8466 20.0737 64.7495 19.9897 64.6411 19.9002C64.6939 19.875 64.7216 19.861 64.7495 19.847C66.4791 19.0886 68.0673 18.0589 69.5666 16.8724C70.5023 16.1308 71.3186 15.2325 71.9099 14.1944C72.6013 12.9827 72.9595 11.715 72.7873 10.383C72.6124 9.04259 71.9377 8.07718 70.6828 7.59582C69.7749 7.24885 68.8058 7.27684 67.8174 7.48948C66.2376 7.83092 64.8799 8.65081 63.7443 9.85414C61.5759 12.1516 60.6624 14.8072 60.8707 17.7539C60.8901 18.0365 60.9345 18.3163 60.9651 18.5765C59.6323 19.2454 58.3163 19.9058 56.9975 20.5606C56.9558 20.583 56.9031 20.583 56.8642 20.5606C56.6254 20.4291 56.4061 20.2611 56.1562 20.1492C55.1511 19.6931 54.0516 19.6371 52.9188 19.7463C52.7106 19.7658 52.5052 19.7966 52.2719 19.8274C52.3247 19.7574 52.358 19.7127 52.3941 19.6679C53.6657 18.0645 59.0965 11.3428 60.4737 9.59387C60.4737 9.58829 60.4764 9.5827 60.4792 9.57987C60.5209 9.52112 60.5486 9.45678 60.5819 9.39236C60.5958 9.36719 60.6125 9.34202 60.6264 9.31402C60.6486 9.26368 60.668 9.21327 60.6846 9.16293C60.7096 9.09017 60.7263 9.01459 60.7402 8.93908C60.7429 8.91383 60.7569 8.89149 60.7596 8.86349C60.7596 8.85508 60.7596 8.84391 60.7596 8.83549C60.7596 8.81315 60.7596 8.7879 60.7596 8.76556C60.7596 8.70122 60.7624 8.63681 60.7569 8.5753C60.7513 8.51371 60.7347 8.45213 60.7207 8.38779C60.718 8.37379 60.7152 8.35696 60.7125 8.34303C60.7069 8.32062 60.7041 8.2982 60.6985 8.27586C60.4626 7.54548 59.6824 7.14531 58.9577 7.38317C58.9244 7.39436 55.5148 8.48288 51.1697 7.8365C50.4145 7.71899 49.712 8.25069 49.5982 9.01183C49.4872 9.77297 50.0091 10.4809 50.7643 10.5957C51.9138 10.7664 52.9994 10.8335 53.9989 10.8335C54.9985 10.8335 55.8091 10.772 56.5644 10.6852C55.426 12.0928 51.2502 17.1578 49.8564 18.8759C49.5788 19.2201 49.265 19.5392 48.9485 19.8498C48.4793 20.3087 47.9628 20.7005 47.3492 20.9243C46.2359 21.3329 45.253 20.888 44.9171 19.8274C44.7366 19.251 44.7366 18.6465 44.8393 18.0336C44.9615 17.2921 46.8273 9.88489 47.0189 9.1881C47.0244 9.17134 47.0355 9.12651 47.0383 9.11251C47.0383 9.11251 47.0716 8.95866 47.0799 8.86349C47.1577 8.10794 46.6135 7.49514 45.8638 7.49514C45.1142 7.49514 44.545 8.08277 44.3479 8.86349C44.3479 8.86349 44.2396 9.36161 44.1841 9.55187C44.1841 9.55187 44.1147 9.40078 44.0897 9.35044C43.6233 8.36262 42.8902 7.6714 41.7824 7.45031C40.3331 7.1621 38.9171 7.46155 37.5538 8.24228C36.2989 8.96142 35.3549 9.99682 34.5969 11.2141C33.9778 12.2075 33.5279 13.2681 33.0921 14.337C32.6451 15.4312 32.2091 16.5309 31.7177 17.6084C31.2846 18.5626 30.7015 19.4328 29.913 20.1632C29.6104 20.4458 29.28 20.6837 28.883 20.8012C28.4193 20.9383 27.9445 20.7565 27.739 20.3535C27.6418 20.1632 27.578 19.9421 27.5475 19.7238C27.4364 18.9907 27.578 18.2463 27.7279 17.5076C27.9833 16.2651 28.386 14.9583 28.9079 13.7802C29.4216 12.6188 29.9825 11.4716 30.5321 10.3243C30.5627 10.2627 30.5849 10.2039 30.6072 10.1423C30.6709 10.0024 30.7126 9.85131 30.7293 9.69463C30.807 8.94183 30.2656 8.32903 29.516 8.32903C29.4049 8.32903 28.6941 8.44937 28.447 8.49688C26.7256 8.83832 26.3369 8.95866 24.6294 8.85791C24.5045 8.84949 24.3823 8.83549 24.2517 8.82432C24.2629 8.76274 24.2601 8.54171 24.2629 8.51088C24.3379 7.78616 23.8159 7.20128 23.0996 7.20128C22.3832 7.20128 21.7974 7.78333 21.6641 8.51088C21.6641 8.52213 21.6113 8.73198 21.528 9.10417C21.2143 10.4865 20.8506 11.8605 20.3619 13.2093C19.7983 14.768 19.0098 16.363 17.9936 17.7259C17.5299 18.3499 16.8525 18.9235 16.2306 19.3992C16.1695 19.4441 16.1029 19.4832 16.0056 19.5447C16.0362 19.4832 16.0445 19.4637 16.0528 19.4468C16.9274 17.9021 17.4799 16.2959 17.6715 14.6253C17.7243 14.2223 17.7632 13.8193 17.7743 13.408C17.802 12.3251 17.6549 11.2868 17.2356 10.3354C16.4083 8.4633 14.9617 7.41115 12.8072 7.34679C11.741 7.31321 10.6387 7.56223 9.65863 8.09952C9.60868 8.12752 9.55866 8.14994 9.50316 8.17794C9.50316 8.15552 9.50035 8.14994 9.50316 8.14435C9.50316 8.14435 10.3944 4.77791 10.8414 1.44788C10.9331 0.681139 10.4027 0.0347213 9.64198 0.00114124C8.97288 -0.0268422 8.39257 0.462868 8.30651 1.13167C7.73456 5.58104 6.41293 11.0546 5.04968 14.9107C4.31947 16.9759 2.95623 18.7024 1.02657 19.9002C0.951611 19.9478 0.848884 20.0037 0.735045 20.0597C0.132551 20.3647 -0.153426 21.0754 0.0825745 21.7135C0.354669 22.4523 1.20149 22.7936 1.90116 22.4466C3.04507 21.8814 4.08347 21.1286 4.9886 20.1436C5.02192 20.1073 5.05801 20.0709 5.09966 20.0261C5.1191 20.0765 5.13298 20.1185 5.14686 20.1576C5.48559 21.109 6.06587 21.9569 6.87938 22.5362C7.87893 23.2498 9.05613 23.5352 10.3333 23.5688C10.3916 23.5688 10.4416 23.5604 10.4971 23.5576L10.4888 23.5688C11.4911 23.594 12.499 23.4849 13.5012 23.2442C16.5471 22.511 19.2125 20.8264 20.9422 18.0728C22.0972 16.2371 22.8941 14.2055 23.4799 12.1767C23.5688 11.8689 23.6493 11.5611 23.7409 11.2365C27.0144 11.4659 27.3253 11.105 27.3031 11.1553C27.1448 11.5023 26.9866 11.9081 26.8394 12.2607C26.0149 14.2559 25.2707 16.3603 24.9598 18.4618C24.8154 19.4412 24.7848 20.4095 25.0236 21.3413C25.2929 22.3907 25.8954 23.1378 26.9644 23.4261C28.2887 23.7843 29.5576 23.5268 30.746 22.6174C31.5262 22.0185 32.1397 21.2714 32.6839 20.4626C32.7367 20.3843 32.7922 20.3031 32.8616 20.2024C32.9171 20.3535 32.9366 20.4066 32.9949 20.5522C33.2642 21.2209 33.6446 21.8422 34.1637 22.3347C35.4326 23.5352 36.9958 23.8766 38.8394 23.3253C39.9944 22.9812 40.9356 22.2452 41.7547 21.3385C41.8907 21.1874 42.0212 21.0307 42.1683 20.86C42.2073 21.0167 42.2377 21.151 42.2739 21.2798C42.4987 22.0717 42.9041 22.7209 43.6482 23.0959C44.6894 23.6192 45.8194 23.7283 47.0133 23.3925C47.7602 23.1826 48.4904 22.8776 49.2206 22.6005C50.5533 22.0941 51.8999 21.8227 53.2743 21.8814C53.5852 21.8954 53.8851 21.9513 54.1849 22.0688C54.1099 22.1137 54.0516 22.1473 53.9961 22.1808C53.0855 22.7573 52.1609 23.3142 51.2669 23.913C50.0285 24.7441 48.9457 25.7487 48.1267 27.0135C47.2715 28.3288 46.7717 29.7251 46.8411 31.2307C46.9078 32.6606 47.5131 33.7632 48.6986 34.474C49.7009 35.0728 50.8309 35.1343 52.0165 34.7902C54.0461 34.1997 55.662 32.9824 56.8615 31.1859C57.6056 30.0722 58.0831 28.8632 58.3691 27.5956C58.6884 26.1796 58.7495 24.786 58.4496 23.4233C58.3968 23.1826 58.3274 22.9476 58.2608 22.6873C59.6796 21.8646 61.8369 20.9915 61.8369 20.9915C61.8814 21.0559 61.9118 21.1007 61.9424 21.1454C62.4727 21.9346 63.2029 22.5642 64.0747 22.9587C65.4186 23.566 66.879 23.6807 68.4005 23.4904C70.0858 23.2778 71.6545 22.6481 73.1094 21.6436C73.1094 21.6436 73.9229 21.0727 73.9923 20.3843C74.0726 19.6119 73.5175 18.9851 72.7512 18.9851V18.9907ZM15.0977 14.5077C14.8007 16.5841 14.0427 18.2883 12.5795 19.7155C12.0992 20.18 11.5605 20.541 10.9358 20.7312C9.91127 21.0419 9.05339 20.8432 8.35645 20.1632C7.78177 19.6007 7.48185 18.8759 7.39025 18.0561C7.13759 15.7446 7.79287 13.6039 9.41429 11.673C9.81966 11.1889 10.2973 10.786 10.8469 10.4838C12.188 9.75056 13.7539 10.0807 14.4897 11.2421C14.8839 11.8661 15.0617 12.5825 15.1005 13.3492C15.1227 13.7886 15.1005 14.2363 15.095 14.5106L15.0977 14.5077ZM41.0633 18.8676C40.5691 19.514 39.9805 20.0597 39.2642 20.4486C37.851 21.2154 36.471 20.8796 35.7575 19.5896C35.3938 18.9319 35.2439 18.1987 35.2299 17.4236C35.2272 17.2082 35.2355 16.9899 35.2439 16.7996C35.255 16.5729 35.2743 16.3463 35.316 16.1224C35.6298 14.3595 36.2961 12.8315 37.5122 11.5135C38.0564 10.9259 38.6839 10.4502 39.4335 10.1927C40.6663 9.77297 41.7574 10.1843 42.3766 11.2841C42.7375 11.9305 42.9041 12.6524 42.9097 13.4192C42.9208 15.3864 42.3349 17.2137 41.0633 18.8704V18.8676ZM53.4714 31.2671C53.3326 31.4097 53.1827 31.5468 53.0216 31.6644C51.1975 33.0104 49.5427 32.1681 49.6065 30.4415C49.6371 29.6608 49.948 28.9584 50.3978 28.2896C51.042 27.3298 51.8832 26.5658 52.8161 25.8942C53.7823 25.1974 55.8592 24.0026 55.8897 23.9886C56.0229 24.4167 56.0869 24.856 56.0757 25.3094C56.0285 27.5704 55.1539 29.5573 53.4741 31.2671H53.4714ZM63.7277 17.5748C63.686 17.5944 63.6471 17.6111 63.575 17.6447C63.5666 17.3145 63.5361 16.9983 63.55 16.682C63.6249 14.8492 64.2552 13.1561 65.4713 11.6394C65.6184 11.4576 65.7851 11.2897 65.9628 11.1386C66.9761 10.2934 68.109 9.6778 69.1251 10.0332C69.7248 10.2431 70.0692 10.8195 70.0331 11.5191C69.9942 12.2663 69.6582 12.9155 69.1973 13.5227C68.5559 14.365 67.7564 15.0423 66.9095 15.6606C65.8989 16.3966 64.8355 17.0262 63.7249 17.5748H63.7277Z"></path>
</g>
<defs>
<clipPath id="clip0_62_7003">
<rect fill="white" height="35" width="74"></rect>
</clipPath>
</defs>
</svg>
