<svg xmlns="http://www.w3.org/2000/svg" fill="none" viewBox="0 0 87 17" height="17" width="87">
<path fill="black" d="M35.866 16.001H32.796L26.088 9.144H24.838V16H22.563V0H30.181C33.388 0 35.298 1.714 35.298 4.572C35.298 7.429 33.388 9.144 30.181 9.144H29.044L35.866 16.001ZM33.024 4.571C33.024 2.949 32.114 1.943 30.181 1.943H24.837V7.201H30.181C32.114 7.201 33.024 6.195 33.024 4.571ZM41.689 16.344C38.05 16.344 35.776 13.624 35.776 10.058C35.776 6.492 38.05 3.771 41.575 3.771C44.418 3.771 46.123 5.371 46.874 7.749C47.147 8.64 47.26 9.623 47.26 10.629V10.858H37.96C38.028 12.778 39.437 14.629 41.689 14.629C43.622 14.629 44.509 13.509 44.691 12.686H47.033C46.487 14.629 44.668 16.344 41.689 16.344ZM37.959 9.144H45.077C44.963 7.086 43.872 5.486 41.575 5.486C39.278 5.486 38.028 7.2 37.959 9.143V9.144ZM47.373 5.943V4.115H50.215V1.372H52.398V4.115H55.468V5.943H52.398V13.143C52.398 13.944 52.626 14.218 53.422 14.218H55.468V16.001H52.967C50.897 16.001 50.215 14.973 50.215 13.144V5.944L47.373 5.943ZM61.745 3.771C65.384 3.771 67.771 6.491 67.771 10.058C67.771 13.624 65.384 16.344 61.745 16.344C58.106 16.344 55.719 13.624 55.719 10.058C55.719 6.492 58.106 3.771 61.745 3.771ZM61.745 5.601C59.266 5.601 57.902 7.657 57.902 10.058C57.902 12.458 59.266 14.515 61.745 14.515C64.224 14.515 65.588 12.458 65.588 10.058C65.588 7.658 64.224 5.601 61.745 5.601ZM74.762 3.771C78.4 3.771 80.788 6.491 80.788 10.058C80.788 13.624 78.4 16.344 74.762 16.344C71.123 16.344 68.735 13.624 68.735 10.058C68.735 6.492 71.123 3.771 74.762 3.771ZM74.762 5.601C72.282 5.601 70.918 7.657 70.918 10.058C70.918 12.458 72.283 14.515 74.762 14.515C77.24 14.515 78.605 12.458 78.605 10.058C78.605 7.658 77.24 5.601 74.762 5.601ZM84.234 0V16.001H82.051V0H84.234ZM10 0.75C10 0.551088 9.92098 0.360322 9.78033 0.21967C9.63968 0.0790176 9.44891 0 9.25 0L0.75 0C0.551088 0 0.360322 0.0790176 0.21967 0.21967C0.0790176 0.360322 0 0.551088 0 0.75L0 4.25C0 4.664 0.336 5 0.75 5H9.25C9.44891 5 9.63968 5.07902 9.78033 5.21967C9.92098 5.36032 10 5.55109 10 5.75V6.75C10 6.94891 9.92098 7.13968 9.78033 7.28033C9.63968 7.42098 9.44891 7.5 9.25 7.5H3.75C3.55109 7.5 3.36032 7.57902 3.21967 7.71967C3.07902 7.86032 3 8.05109 3 8.25V11.75C3 12.164 3.336 12.5 3.75 12.5H9.25C9.44891 12.5 9.63968 12.579 9.78033 12.7197C9.92098 12.8603 10 13.0511 10 13.25V15.25C10 15.665 10.336 16 10.75 16H14.25C14.4489 16 14.6397 15.921 14.7803 15.7803C14.921 15.6397 15 15.4489 15 15.25V11.75C15 11.5511 14.921 11.3603 14.7803 11.2197C14.6397 11.079 14.4489 11 14.25 11H10.75C10.5511 11 10.3603 10.921 10.2197 10.7803C10.079 10.6397 10 10.4489 10 10.25V9.25C10 9.05109 10.079 8.86032 10.2197 8.71967C10.3603 8.57902 10.5511 8.5 10.75 8.5H14.25C14.4489 8.5 14.6397 8.42098 14.7803 8.28033C14.921 8.13968 15 7.94891 15 7.75V4.25C15 4.05109 14.921 3.86032 14.7803 3.71967C14.6397 3.57902 14.4489 3.5 14.25 3.5H10.75C10.5511 3.5 10.3603 3.42098 10.2197 3.28033C10.079 3.13968 10 2.94891 10 2.75V0.75Z"></path>
</svg>
