<svg xmlns="http://www.w3.org/2000/svg" fill="none" viewBox="0 0 190 34" height="34" width="190">
<g clip-path="url(#clip0_5839_69876)">
<path fill="#040F4B" d="M126.694 12.3475C122.319 12.3475 119.38 15.2548 119.38 19.5845C119.38 23.9142 122.319 26.7919 126.694 26.7919C131.07 26.7919 134.009 23.8977 134.009 19.5845C134.009 15.2713 131.086 12.3475 126.694 12.3475ZM126.694 23.967C124.709 23.967 123.571 22.3698 123.571 19.5845C123.571 16.7993 124.709 15.1723 126.694 15.1723C128.679 15.1723 129.818 16.7795 129.818 19.5845C129.818 22.3896 128.679 23.967 126.694 23.967ZM148.454 17.7497V26.4916H144.339V18.5714C144.339 16.3636 143.523 15.2416 141.906 15.2416C140.289 15.2416 139.469 16.3802 139.469 18.6242V26.485H135.371V12.6445H139.455V14.9974C140.078 13.6774 141.313 12.3409 143.75 12.3409C146.753 12.3475 148.47 14.3176 148.47 17.7629L148.454 17.7497ZM149.967 7.18945H154.208V11.0208H149.967V7.18945ZM150.017 12.6379H154.131V26.4784H150.034L150.017 12.6379ZM163.478 23.4522H164.937V26.4784H162.638C159.625 26.4784 157.767 24.891 157.767 22.3302V15.6607H155.196V12.6379H157.767V10.8493L161.881 8.55899V12.6379H164.894V15.6607H161.881V22.053C161.884 23.0793 162.33 23.4654 163.495 23.4654L163.478 23.4522ZM172.476 12.3343C168.101 12.3343 165.162 15.2416 165.162 19.5713C165.162 23.901 168.101 26.7787 172.476 26.7787C176.852 26.7787 179.791 23.8845 179.791 19.5713C179.791 15.2581 176.865 12.3475 172.493 12.3475L172.476 12.3343ZM172.476 23.9538C170.491 23.9538 169.35 22.3566 169.35 19.5713C169.35 16.7861 170.491 15.1591 172.476 15.1591C174.461 15.1591 175.6 16.7663 175.6 19.5713C175.6 22.3764 174.478 23.967 172.493 23.967L172.476 23.9538ZM189.847 12.3343V16.3142H188.746C186.272 16.3142 185.264 17.1854 185.264 19.3205V26.4784H181.167V12.6379H185.254V15.5716C186.011 13.4761 187.597 12.3343 189.753 12.3343H189.847ZM37.4836 22.9506H45.8526V26.4784H33.2354V7.20266H37.4769L37.4836 22.9506ZM53.2911 12.3343C48.9157 12.3343 45.9765 15.2416 45.9765 19.5713C45.9765 23.901 48.9157 26.7787 53.2911 26.7787C57.6664 26.7787 60.6056 23.8845 60.6056 19.5713C60.6056 15.2581 57.6831 12.3475 53.3078 12.3475L53.2911 12.3343ZM53.2911 23.9538C51.3059 23.9538 50.1677 22.3566 50.1677 19.5713C50.1677 16.7861 51.3059 15.1591 53.2911 15.1591C55.2762 15.1591 56.4144 16.7663 56.4144 19.5713C56.4144 22.3764 55.2929 23.967 53.3078 23.967L53.2911 23.9538ZM71.9539 15.1855C71.5825 14.3244 70.958 13.5926 70.1609 13.0844C69.3638 12.5762 68.4307 12.315 67.4816 12.3343C64.0604 12.3343 61.6702 15.2185 61.6702 19.3436C61.6702 23.538 64.0135 26.353 67.4816 26.353C68.3968 26.3589 69.2964 26.1194 70.0842 25.6602C70.872 25.201 71.5182 24.5393 71.9539 23.7459V26.1946C71.9539 27.871 70.9029 28.8743 69.1353 28.8743C67.6992 28.8743 66.6916 28.1911 66.4572 27.0526L66.4371 26.9668H62.3062V27.0856C62.5774 29.3165 64.5156 31.7057 69.1353 31.7057C72.483 31.7057 76.0415 30.2405 76.0415 26.1286V12.6445H71.9539V15.1855ZM68.9846 23.5281C66.976 23.5281 65.858 22.0431 65.858 19.3436C65.858 16.6442 66.9693 15.1591 68.9846 15.1591C70.9999 15.1591 72.108 16.6838 72.108 19.3436C72.108 22.0035 70.9865 23.5413 69.0014 23.5413L68.9846 23.5281ZM77.5546 7.18945H81.7961V11.0208H77.5546V7.18945ZM77.6048 12.6379H81.7191V26.4784H77.6048V12.6379ZM93.2148 21.4194H97.3525L97.3257 21.5481C96.6863 24.7755 94.0116 26.7787 90.3459 26.7787C85.994 26.7787 83.0815 23.8713 83.0815 19.5449C83.0815 15.2185 86.0007 12.3343 90.3459 12.3343C93.9747 12.3343 96.6026 14.3605 97.2018 17.6144L97.2253 17.7431H93.0842L93.0642 17.6573C92.8499 16.7234 92.2072 15.1558 90.3459 15.1558C88.3942 15.1558 87.2728 16.7564 87.2728 19.5416C87.2728 22.3269 88.3942 23.9505 90.3459 23.9505C91.8088 23.9505 92.7428 23.1486 93.1947 21.4953L93.2148 21.4194ZM113.608 7.18945H118.031V26.4784H113.779V13.9678L108.423 23.0694L108.319 22.9176L103.047 13.9744V26.485H98.8087V7.20266H103.201L103.231 7.25548L108.423 16.0567L113.608 7.18945Z"></path>
<path fill="#040F4B" d="M6.86598 14.6947V26.7499L0 30.5219V11.2626L20.0857 0.256836V7.44771L6.86598 14.6947ZM20.0857 7.4345V19.4666L6.86598 26.7268V33.9308L26.9517 22.8855V3.66254L20.0857 7.4345ZM15.928 17.5063C15.2317 17.5063 14.8299 16.9454 14.8299 15.9652C14.8299 14.9851 15.2317 14.4175 15.928 14.4175C16.6243 14.4175 17.026 14.9818 17.026 15.9652C17.026 16.9487 16.6142 17.5063 15.928 17.5063ZM11.0472 19.7801C10.3509 19.7801 9.94913 19.2191 9.94913 18.239C9.94913 17.2588 10.3509 16.6912 11.0472 16.6912C11.7435 16.6912 12.1451 17.2555 12.1451 18.239C12.1451 19.2224 11.7334 19.7801 11.0371 19.7801H11.0472Z"></path>
</g>
<defs>
<clipPath id="clip0_5839_69876">
<rect fill="white" height="34" width="190"></rect>
</clipPath>
</defs>
</svg>
