<svg xmlns="http://www.w3.org/2000/svg" fill="none" viewBox="0 0 142 32" height="32" width="142">
<g clip-path="url(#clip0_62_6151)">
<mask height="33" width="142" y="0" x="0" maskUnits="userSpaceOnUse" style="mask-type:alpha" id="mask0_62_6151">
<path fill="white" d="M0 0H141.67V32.0096H0V0Z"></path>
</mask>
<g mask="url(#mask0_62_6151)">
<path fill="#29B5E8" d="M87.6349 10.0162L87.6307 10.0136C87.6307 10.0136 87.6286 10.012 87.6258 10.012C87.5297 9.97038 87.4243 9.94874 87.3228 9.94874C87.1586 9.9499 87.0011 9.99846 86.8636 10.0836C86.7236 10.1715 86.6052 10.2997 86.5371 10.4601V10.464L83.3312 19.1596L80.8602 13.3312L80.8565 13.3287C80.7871 13.1657 80.6626 13.0398 80.5214 12.9521C80.3788 12.8642 80.2144 12.8159 80.0414 12.8159C79.8732 12.8159 79.7165 12.8681 79.5781 12.9533C79.4417 13.041 79.3186 13.1657 79.2495 13.3287L79.2478 13.3312L76.772 19.1633L73.5488 10.4716H73.5463C73.4901 10.3036 73.3756 10.1727 73.2395 10.0861C73.1011 9.99846 72.9392 9.9499 72.7723 9.94874C72.6659 9.94874 72.5581 9.97038 72.4564 10.012H72.4515L72.4478 10.0162C72.1473 10.155 71.9639 10.4525 71.9627 10.7768C71.9627 10.8788 71.9831 10.9803 72.0226 11.0808H72.0217L75.9864 21.6312V21.6349C76.0172 21.7136 76.0607 21.7914 76.125 21.8678C76.1712 21.9223 76.2395 21.9683 76.3099 22.0065C76.3229 22.019 76.3433 22.0367 76.3739 22.0558C76.4072 22.0763 76.4499 22.0906 76.4933 22.0979C76.5639 22.1212 76.6577 22.155 76.7834 22.155C76.9438 22.155 77.0927 22.0979 77.2262 22.0128C77.3509 21.9301 77.4624 21.8065 77.524 21.6464L77.5342 21.6388L80.0414 15.6994L82.5518 21.6146H82.5543C82.6122 21.7723 82.7139 21.8958 82.8316 21.9835C82.9563 22.0763 83.0959 22.1336 83.2438 22.155H83.349C83.4494 22.155 83.5467 22.1361 83.6287 22.1044C83.7148 22.0714 83.7842 22.028 83.8418 21.9849C83.9765 21.883 84.0806 21.743 84.1449 21.5877V21.5842L88.0843 11.0808C88.1228 10.9803 88.143 10.8799 88.143 10.7784C88.1421 10.4564 87.9505 10.1499 87.6349 10.0162ZM69.5108 16.0393C69.5108 14.8004 69.0308 13.6783 68.2672 12.8681C67.4994 12.0564 66.4597 11.5602 65.3304 11.5602C64.2006 11.5602 63.1586 12.0564 62.3922 12.8681C61.627 13.6783 61.147 14.8004 61.147 16.0393C61.147 17.2771 61.627 18.3887 62.3922 19.1937C63.1586 20.0017 64.2006 20.4901 65.3304 20.4901C66.4597 20.4901 67.5032 20.0017 68.2672 19.1937C69.0308 18.3887 69.5108 17.2771 69.5108 16.0393ZM69.489 11.7384C70.5493 12.8527 71.1936 14.3818 71.1961 16.0393C71.1936 17.6968 70.5493 19.2243 69.489 20.3389C68.4367 21.4517 66.9669 22.1552 65.3329 22.1552C63.7115 22.1552 62.2394 21.4517 61.1832 20.3389C60.1254 19.2243 59.4707 17.6968 59.4707 16.0393C59.4707 14.3818 60.1254 12.8527 61.1832 11.7384C62.2394 10.6265 63.7115 9.9232 65.3329 9.9232C66.9669 9.9232 68.4367 10.6265 69.489 11.7384ZM52.7961 9.94483C51.4817 9.94483 50.2817 10.4525 49.3858 11.2626V10.7784C49.3844 10.5556 49.301 10.348 49.1545 10.1955C49.0124 10.0454 48.8015 9.94483 48.5707 9.94483C48.3317 9.94483 48.1162 10.0401 47.9662 10.1941C47.8185 10.3455 47.73 10.5556 47.73 10.7784V21.5741L47.7646 21.6082L47.766 21.6135C47.775 21.6491 47.7978 21.6885 47.8222 21.7265C47.9364 21.9262 48.1239 22.0777 48.3561 22.1449L48.3895 22.1552H48.5707C48.6914 22.1552 48.8131 22.1299 48.9288 22.0763C49.0251 22.0305 49.1148 21.9568 49.1868 21.8627L49.1893 21.8639C49.1982 21.8551 49.2009 21.8436 49.2112 21.8349C49.2151 21.8335 49.2188 21.8296 49.2214 21.8257C49.2662 21.7686 49.3036 21.7101 49.3268 21.6553C49.3512 21.5904 49.3665 21.5292 49.3781 21.4823L49.3858 21.4517V14.9694C49.4102 14.0421 49.7952 13.2039 50.4127 12.5945C51.0261 11.9855 51.8667 11.6088 52.7961 11.6088C53.7411 11.6088 54.5841 11.9855 55.1951 12.5945C55.8086 13.2016 56.1809 14.0384 56.1809 14.9606V21.326C56.1809 21.5585 56.281 21.7736 56.4326 21.9212C56.5878 22.0685 56.7996 22.1552 57.0204 22.1552C57.245 22.1552 57.4556 22.0685 57.6096 21.9212C57.7661 21.7736 57.8611 21.5585 57.8611 21.326V14.9606C57.8611 12.2132 55.5968 9.94874 52.7961 9.94483ZM135.539 14.8587C135.062 12.9393 133.361 11.5717 131.42 11.5756C129.43 11.5756 127.753 12.9139 127.233 14.8587H135.539ZM137.378 15.6451V15.7275C137.378 15.9579 137.274 16.1652 137.117 16.3015C136.96 16.4386 136.756 16.51 136.536 16.5125H127.116C127.356 18.7905 129.191 20.4726 131.383 20.4901H131.938C132.664 20.4926 133.37 20.2446 133.991 19.8337C134.613 19.4268 135.151 18.8582 135.53 18.2322C135.608 18.0987 135.72 17.9969 135.842 17.9346C135.966 17.8671 136.1 17.8365 136.235 17.8365C136.383 17.8365 136.531 17.8747 136.661 17.9523L136.67 17.9562L136.68 17.9638C136.916 18.1355 137.064 18.3976 137.064 18.6853C137.064 18.8315 137.026 18.9804 136.944 19.115L136.942 19.1203L136.939 19.1226C136.413 19.9523 135.695 20.709 134.843 21.2574C133.99 21.8068 133 22.1552 131.938 22.1552H131.374C129.721 22.1437 128.226 21.4517 127.149 20.3451C126.075 19.2423 125.413 17.7272 125.413 16.0623C125.413 14.3692 126.08 12.8325 127.164 11.7206C128.247 10.6102 129.752 9.9232 131.42 9.9232C133.012 9.9232 134.441 10.5503 135.5 11.577C136.559 12.6035 137.251 14.0292 137.375 15.6333L137.378 15.6451ZM98.7388 4.89865C98.5094 4.89865 98.2987 4.99417 98.1476 5.14422C97.9957 5.29312 97.8998 5.50302 97.8998 5.73063V21.326C97.8998 21.5536 97.9957 21.7621 98.1476 21.9099C98.2987 22.0572 98.5094 22.1552 98.7388 22.1552C99.2151 22.1552 99.6002 21.7838 99.603 21.326V5.73063C99.6002 5.27149 99.2151 4.89865 98.7388 4.89865ZM43.8459 15.7415C43.168 15.4248 42.3991 15.1908 41.6318 14.939C40.9258 14.7024 40.2094 14.5013 39.6985 14.2368C39.4419 14.1006 39.2417 13.957 39.1121 13.7954C38.9797 13.6341 38.9156 13.4697 38.9117 13.2458C38.9131 12.9393 39.0029 12.6925 39.1544 12.4737C39.384 12.1469 39.7691 11.8923 40.1901 11.728C40.606 11.5632 41.0566 11.4854 41.3787 11.4854C42.3311 11.4868 42.9332 11.801 43.3954 12.1264C43.6237 12.2907 43.8164 12.4571 43.9987 12.5945C44.0923 12.6658 44.1796 12.7307 44.2811 12.7788C44.377 12.826 44.4901 12.8642 44.6134 12.8642C44.6917 12.8642 44.7702 12.8502 44.8417 12.8198C44.9174 12.7894 44.9831 12.7459 45.0461 12.6925C45.1076 12.6355 45.1603 12.5667 45.1975 12.4902C45.2309 12.4113 45.2463 12.3301 45.2463 12.25C45.2463 12.1022 45.1987 11.9637 45.1306 11.8336C45.0036 11.6049 44.8083 11.3862 44.5596 11.1674C44.1898 10.8417 43.7022 10.5312 43.1771 10.2974C42.6506 10.0634 42.086 9.9041 41.5482 9.9041C40.3018 9.9041 39.2609 10.184 38.5048 10.6995C38.1107 10.969 37.7642 11.264 37.5192 11.6712C37.27 12.0794 37.1314 12.5832 37.1135 13.2382C37.1123 13.2674 37.1123 13.2967 37.1123 13.3259C37.1098 13.962 37.3162 14.4863 37.6409 14.8969C38.1339 15.5153 38.8657 15.8854 39.5833 16.1475C40.2995 16.4094 41.0155 16.5659 41.4674 16.716C42.1039 16.9258 42.7804 17.1535 43.2732 17.455C43.5187 17.6089 43.7175 17.7744 43.8524 17.9562C43.9834 18.1433 44.0575 18.3364 44.0603 18.5808V18.5988C44.0589 18.9523 43.9539 19.2296 43.7804 19.4673C43.5187 19.8211 43.0835 20.0805 42.6211 20.2446C42.1606 20.405 41.6817 20.4726 41.3736 20.4726C40.2865 20.4726 39.5589 20.2128 39.0313 19.9523C38.7668 19.8211 38.5524 19.6913 38.3585 19.5817C38.2623 19.5297 38.1725 19.4814 38.0775 19.4432C37.9851 19.4052 37.8864 19.3806 37.7747 19.3806C37.7066 19.3806 37.6323 19.3923 37.564 19.4188C37.4948 19.4482 37.4319 19.489 37.3792 19.5385C37.306 19.6089 37.2419 19.6874 37.1971 19.7778C37.1534 19.8683 37.1314 19.9635 37.1314 20.0627C37.1314 20.2257 37.1929 20.3746 37.2805 20.5092C37.4177 20.7037 37.6193 20.8781 37.8708 21.0524C38.13 21.2241 38.4395 21.3934 38.7962 21.5601C39.587 21.9301 40.6009 22.1235 41.3712 22.1361H41.3736C42.5714 22.1361 43.6058 21.8627 44.4773 21.2268V21.2252H44.4785C45.3308 20.5893 45.861 19.6441 45.861 18.5769C45.861 17.9905 45.7223 17.4932 45.4799 17.0863C45.1141 16.4692 44.5196 16.0623 43.8459 15.7415ZM111.398 16.0393C111.398 14.7887 110.921 13.6681 110.16 12.8594C109.4 12.0527 108.357 11.5632 107.216 11.5605C106.083 11.5605 105.044 12.0527 104.276 12.8594C103.514 13.6681 103.031 14.7887 103.031 16.0393C103.031 17.2886 103.514 18.4018 104.276 19.2041C105.04 20.0068 106.083 20.4901 107.216 20.4901C108.359 20.4901 109.403 20.0068 110.163 19.2068C110.921 18.4018 111.398 17.2897 111.398 16.0393ZM112.825 10.155C112.98 10.3036 113.076 10.5188 113.076 10.7513V21.326C113.076 21.5536 112.978 21.7621 112.83 21.9099C112.678 22.0572 112.469 22.1552 112.238 22.1552C112.007 22.1552 111.795 22.0572 111.647 21.9099C111.495 21.7621 111.398 21.5536 111.398 21.326V20.2943C110.341 21.4252 108.857 22.1552 107.216 22.1552C105.582 22.1552 104.111 21.4595 103.057 20.3451C101.999 19.2361 101.352 17.7081 101.352 16.0393C101.352 14.3705 101.999 12.8412 103.057 11.731C104.111 10.6178 105.582 9.9232 107.216 9.9232C108.856 9.9232 110.341 10.632 111.398 11.7575V10.7513C111.398 10.5188 111.494 10.3036 111.649 10.155C111.804 10.0086 112.014 9.9232 112.238 9.9232C112.46 9.9232 112.672 10.0086 112.825 10.155ZM124.676 11.2272C124.843 11.0631 124.934 10.8454 124.934 10.6293C124.934 10.4169 124.843 10.2042 124.675 10.0502H124.676C124.675 10.0454 124.671 10.0454 124.671 10.0454C124.67 10.0415 124.667 10.0401 124.667 10.0401H124.665C124.503 9.88246 124.295 9.79593 124.08 9.79593C123.864 9.79593 123.652 9.88545 123.49 10.0454L116.927 16.3841V5.73063C116.927 5.27149 116.539 4.89865 116.063 4.89865C115.834 4.89865 115.623 4.99417 115.473 5.14422C115.324 5.29312 115.224 5.50302 115.224 5.73063V21.326C115.224 21.5536 115.324 21.7621 115.473 21.9099C115.623 22.0572 115.834 22.1552 116.063 22.1552C116.539 22.1552 116.927 21.7838 116.927 21.326V18.7525L119.064 16.6372L123.421 21.8461C123.503 21.9658 123.615 22.0482 123.725 22.0917C123.851 22.1389 123.973 22.1552 124.082 22.1552C124.232 22.1552 124.444 22.1235 124.63 21.9785L124.64 21.9723L124.652 21.9605C124.826 21.7902 124.925 21.5637 124.925 21.3322C124.925 21.1375 124.852 20.9391 124.717 20.7803V20.7778L120.283 15.435L124.672 11.2272H124.676ZM95.276 4.93571H95.0886C95.064 4.93571 95.0398 4.93824 95.0141 4.93916C94.9911 4.93824 94.9665 4.93571 94.9423 4.93571C94.4583 4.93571 93.9885 4.99025 93.5494 5.13524C93.1167 5.2777 92.7178 5.51314 92.4084 5.87056L92.4072 5.86918L92.4061 5.87056V5.87171C92.0863 6.22406 91.8757 6.64523 91.7475 7.1237C91.619 7.60448 91.5663 8.14624 91.5612 8.76188V9.95404H90.2352C89.7747 9.95657 89.4088 10.3216 89.4088 10.763C89.4063 11.0007 89.4997 11.2196 89.6514 11.3775C89.8042 11.5326 90.0132 11.6343 90.2454 11.647H91.5612V21.3463L91.5598 21.369C91.5598 21.5967 91.6562 21.8066 91.8116 21.9568C91.9653 22.1044 92.1813 22.192 92.4163 22.192C92.8629 22.1897 93.2298 21.8284 93.2312 21.369V11.647H94.6571C94.887 11.6343 95.0988 11.5388 95.2505 11.3849C95.4056 11.2311 95.5006 11.015 95.5006 10.7807V10.7492C95.4955 10.3126 95.1269 9.95404 94.6662 9.95404H93.2312V8.76695C93.2403 8.24175 93.2953 7.84866 93.375 7.56259C93.4518 7.27491 93.5573 7.09425 93.652 6.9824C93.7447 6.8832 93.8652 6.80035 94.0617 6.73407C94.2593 6.67078 94.5326 6.63004 94.9026 6.63004H94.946C94.9678 6.63004 94.9911 6.62613 95.0115 6.62613C95.0373 6.62613 95.0614 6.63004 95.0886 6.63004H95.1964H95.276C95.7493 6.63004 96.1309 6.25099 96.1309 5.78265C96.1309 5.31476 95.7493 4.93571 95.276 4.93571ZM10.7361 16.5898C10.8042 16.3774 10.8325 16.1585 10.8274 15.9424C10.8195 15.7859 10.799 15.6297 10.7542 15.4732C10.6193 14.9873 10.2997 14.5533 9.82089 14.2796L3.01022 10.3823C2.04878 9.8339 0.823056 10.16 0.271273 11.1114C-0.285852 12.0615 0.0427566 13.2748 1.0042 13.8246L4.81002 16.006L1.0042 18.1813C0.0427566 18.732 -0.284691 19.9456 0.271273 20.8995C0.823056 21.8484 2.04878 22.1729 3.01022 21.6245L9.82089 17.7247C10.2805 17.4625 10.5924 17.0515 10.7361 16.5898ZM12.5844 20.242C12.1931 20.2089 11.7863 20.2903 11.4203 20.5016L4.60449 24.3964C3.6456 24.946 3.31816 26.1657 3.87157 27.1174C4.42753 28.0665 5.65209 28.3933 6.60958 27.8412L10.4282 25.6583V30.0202C10.4282 31.1192 11.3253 32.0096 12.4356 32.0096C13.5405 32.0096 14.4404 31.1192 14.4404 30.0202V22.2224C14.4404 21.1755 13.6216 20.3157 12.5844 20.242ZM19.5644 11.7674C19.9546 11.7993 20.3603 11.7167 20.7263 11.508L27.5407 7.60954C28.5009 7.05972 28.8268 5.84501 28.2747 4.89083C27.7216 3.94102 26.4958 3.61513 25.537 4.16449L21.7209 6.34995V1.98662C21.7209 0.890664 20.8238 0 19.7135 0C18.6032 0 17.7084 0.890664 17.7084 1.98662V9.78442C17.7084 10.8302 18.5249 11.6914 19.5644 11.7674ZM4.60449 7.60954L11.4203 11.508C11.7863 11.7167 12.1931 11.7993 12.5844 11.7674C13.6216 11.6914 14.4404 10.8302 14.4404 9.78442V1.98662C14.4404 0.890664 13.5405 0 12.4356 0C11.3253 0 10.4282 0.890664 10.4282 1.98662V6.34995L6.60958 4.16449C5.65209 3.61513 4.42753 3.94102 3.87157 4.89083C3.31816 5.84501 3.6456 7.05972 4.60449 7.60954ZM17.4132 15.9896C17.4132 15.8764 17.344 15.7185 17.2632 15.6347L16.443 14.8255C16.3622 14.7457 16.2029 14.6794 16.0884 14.6794H16.0566C15.9423 14.6794 15.7832 14.7457 15.7036 14.8255L14.8833 15.6347C14.8011 15.7185 14.7382 15.8764 14.7382 15.9896V16.0214C14.7382 16.1332 14.8011 16.2897 14.8833 16.3712L15.7036 17.1827C15.7844 17.2628 15.9423 17.3288 16.0566 17.3288H16.0884C16.2029 17.3288 16.3622 17.2628 16.443 17.1827L17.2632 16.3712C17.344 16.2897 17.4132 16.1332 17.4132 16.0214V15.9896ZM19.6775 16.768L16.8447 19.5718C16.7637 19.6542 16.6072 19.7217 16.4892 19.7217H16.2837H15.8652H15.6562C15.5417 19.7217 15.3826 19.6542 15.3004 19.5718L12.469 16.768C12.388 16.689 12.3225 16.5302 12.3225 16.4181V16.2108V15.7961V15.5915C12.3225 15.4768 12.388 15.3178 12.469 15.2377L15.3004 12.4341C15.3826 12.3515 15.5417 12.2866 15.6562 12.2866H15.8652H16.2837H16.4892C16.6046 12.2866 16.7637 12.3515 16.8447 12.4341L19.6775 15.2377C19.7583 15.3178 19.8238 15.4768 19.8238 15.5915V15.7961V16.2108V16.4181C19.8238 16.5302 19.7583 16.689 19.6775 16.768ZM27.5407 24.3964L20.7263 20.5016C20.3603 20.2903 19.9546 20.2089 19.5644 20.242C18.5249 20.3157 17.7084 21.1755 17.7084 22.2224V30.0202C17.7084 31.1192 18.6032 32.0096 19.7135 32.0096C20.8238 32.0096 21.7209 31.1192 21.7209 30.0202V25.6583L25.537 27.8412C26.4956 28.3933 27.7216 28.0665 28.2747 27.1174C28.8268 26.1657 28.5009 24.946 27.5407 24.3964ZM31.1437 13.8246L27.3377 16.006L31.1437 18.1813C32.1049 18.732 32.4336 19.9456 31.8778 20.8995C31.3233 21.8484 30.0964 22.1729 29.1386 21.6245L22.3229 17.7247C21.8684 17.4625 21.5528 17.0515 21.4127 16.5898C21.3461 16.3774 21.3152 16.1585 21.3229 15.9424C21.3268 15.7859 21.3498 15.6297 21.3935 15.4732C21.5298 14.9873 21.8493 14.5535 22.3229 14.2796L29.1386 10.3823C30.0964 9.8339 31.3233 10.16 31.8778 11.1114C32.4336 12.0615 32.1049 13.2748 31.1437 13.8246ZM141.67 9.93425C141.67 11.0277 140.932 11.9402 139.698 11.9402C138.473 11.9402 137.743 11.0189 137.743 9.93425C137.743 8.84082 138.473 7.92806 139.698 7.92806C140.932 7.92806 141.67 8.84082 141.67 9.93425ZM141.279 9.93425C141.279 9.00446 140.654 8.29814 139.698 8.29814C138.76 8.29814 138.134 8.9697 138.134 9.93425C138.134 10.8553 138.76 11.5699 139.698 11.5699C140.654 11.5699 141.279 10.864 141.279 9.93425ZM138.924 9.03H139.767C140.228 9.03 140.532 9.27971 140.532 9.66705C140.532 9.90824 140.41 10.0889 140.228 10.201L140.558 10.6744V10.7692H140.08L139.759 10.3128H139.385V10.7692H138.924V9.03ZM139.759 9.45209H139.385V9.90824H139.759C139.932 9.90824 140.045 9.83068 140.045 9.68454C140.045 9.52942 139.941 9.45209 139.759 9.45209Z" clip-rule="evenodd" fill-rule="evenodd"></path>
</g>
</g>
<defs>
<clipPath id="clip0_62_6151">
<rect fill="white" height="32.0096" width="141.67"></rect>
</clipPath>
</defs>
</svg>
