<svg xmlns="http://www.w3.org/2000/svg" fill="none" viewBox="0 0 141 33" height="33" width="141">
<g clip-path="url(#clip0_62_6014)">
<path fill="black" d="M34.9494 9.56932C34.6093 8.86313 34.0783 8.29539 33.0643 8.04133C32.077 7.7937 31.206 7.92118 30.6094 8.45223L28.6333 7.76802C28.432 7.33136 28.2506 6.88544 28.0897 6.43169C27.9771 6.10346 27.7518 5.82785 27.4553 5.65576C26.1623 4.90368 22.659 3.11701 21.302 4.9422C21.302 4.9422 21.2309 5.02382 21.1346 5.16874L20.7117 5.02199C20.4921 4.24423 19.7696 3.64806 18.7679 3.39676C18.1515 3.24267 17.5451 3.28119 17.042 3.47013C16.6758 3.6077 16.6586 4.04428 17.0258 4.17635L18.6033 4.74042C18.9606 4.86882 19.1495 5.2678 19.0235 5.63283L19.0218 5.63833C18.896 6.00262 18.5047 6.19429 18.1471 6.06666L16.4391 5.55028C16.2676 5.49853 16.0821 5.54715 15.9564 5.67682C15.8307 5.80648 15.7852 5.99613 15.838 6.17029C16.0648 6.94072 16.8081 7.62311 17.8015 7.87165C18.6456 8.08261 19.4708 7.93219 20.0377 7.52955L20.4084 7.65795C20.4354 8.53385 21.0987 9.57946 21.7186 9.95452C22.6076 10.4925 23.4273 10.0802 24.3389 9.62149C24.4019 9.58986 24.4651 9.55806 24.529 9.52625C24.529 9.52625 27.0054 11.544 25.8571 17.2682C22.6869 17.6084 21.5404 18.7723 20.3887 19.9463C19.6688 19.6546 17.4893 19.5115 16.3293 19.7848C16.6578 19.4501 17.2031 19.0539 17.8717 18.7897C18.1755 18.6697 18.3757 18.3716 18.3756 18.0395C18.3756 18.0395 19.8271 17.5662 19.8271 17.0223C19.8271 16.8666 19.6801 16.7599 19.4529 16.5952C18.887 16.1847 17.8238 15.4136 17.2985 12.6236C17.1788 12.1695 17.0439 11.7889 16.3591 11.4614C16.3591 11.4614 16.1682 11.0524 16.4454 10.604C16.4899 10.5319 16.5322 10.4659 16.5716 10.4046L16.5716 10.4045C16.7766 10.0854 16.9015 9.89092 16.8396 9.59315C16.7667 9.23828 16.2429 8.94563 16.2429 8.94563V8.3495C16.2429 8.3495 14.786 7.25898 14.786 5.69887C14.786 4.23422 16.5411 2.49458 17.2063 1.83507C17.2505 1.79126 17.29 1.7522 17.3237 1.71832C17.3563 1.68695 17.3723 1.64167 17.3669 1.59633C17.3597 1.55192 17.3332 1.51318 17.2949 1.49086C16.5966 1.04878 15.209 0.26001 13.0754 0.26001C5.78763 0.26001 3.32598 6.02484 1.62522 10.0078C1.35867 10.632 1.1108 11.2125 0.865972 11.7201C0.823793 11.8018 0.821793 11.899 0.860573 11.9824C1.70142 13.6939 2.78393 14.5419 3.71581 15.2719C4.7815 16.1067 5.65019 16.7872 5.73517 18.4284C5.86205 20.8882 5.29783 20.9432 4.73632 20.891C4.36736 20.8561 3.82744 20.5204 3.49989 20.2939C3.45492 20.2628 3.39551 20.2643 3.35216 20.2978C3.30882 20.3311 3.29115 20.3889 3.30822 20.4415C3.52779 21.1129 4.1667 22.4951 6.02852 22.4951C6.97519 22.4951 7.26495 21.6192 7.26495 20.8121V18.0312C7.26495 17.757 7.18756 17.4975 6.98419 17.3186C6.34258 16.7563 4.98377 15.4063 4.98377 14.2085C4.98377 13.6967 5.32032 13.4297 5.71087 13.4297C6.44247 13.4297 7.15246 14.5523 7.70228 15.9685C7.83096 16.2987 8.01544 16.5326 8.18461 16.6472C8.21071 16.6655 8.2458 16.6647 8.271 16.6453C8.29651 16.6266 8.30797 16.5938 8.2998 16.5628C8.07303 15.741 7.99834 14.8826 7.97405 14.4597C7.96454 14.293 7.88884 14.1373 7.76437 14.0286C7.22085 13.5554 5.74957 12.0677 5.74957 9.84542C5.74957 6.85084 10.4235 7.10123 11.3665 7.18286C11.6473 8.18258 12.2331 8.61365 12.6237 8.79709C12.5385 8.82914 12.4468 8.86313 12.3499 8.89911C10.8369 9.46031 8.01814 10.5059 8.01814 12.2383C8.01814 14.2139 11.2172 14.0699 11.2172 14.0699C11.2172 14.0699 10.7088 18.0147 14.3118 19.2043C14.3118 19.2043 13.7494 19.7848 11.8138 19.7848C10.0078 19.7848 9.12586 18.963 8.69663 17.9918C8.67878 17.951 8.63861 17.9251 8.59481 17.9262C8.551 17.9271 8.51206 17.9548 8.49597 17.9964C8.39698 18.2477 8.31959 18.7026 8.66154 19.2731C8.80712 19.5152 8.96424 19.7292 9.11554 19.9353C9.51608 20.4807 9.87633 20.9714 9.87633 21.7861C9.87633 22.6162 9.14744 23.1362 8.84785 23.3151C8.82801 23.3266 8.81709 23.3493 8.82029 23.3723C8.8235 23.3953 8.84005 23.4141 8.86224 23.4196C9.57224 23.5939 12.8009 24.4212 14.9742 25.4741C14.9921 25.4824 15.0119 25.4805 15.0282 25.4705C15.2711 25.3145 17.1518 24.0617 17.2598 22.4098C17.2598 22.4098 17.402 21.3303 15.82 21.1349C15.82 21.1349 16.5048 20.8644 17.743 20.8644C18.9768 20.8644 20.3238 21.8862 17.8978 26.9728C17.8857 26.9988 17.8946 27.0299 17.9185 27.0453C18.2911 27.2837 21.051 29.0795 22.8165 30.8259C22.8565 30.8656 22.9114 30.8859 22.9671 30.8817C23.0228 30.8775 23.0741 30.8492 23.108 30.8039C23.3357 30.4956 23.7767 29.6711 24.1015 27.6432C24.1315 27.456 24.2646 27.3032 24.4435 27.2506C25.4963 26.9407 29.1066 25.7465 30.6868 23.5306C32.5477 20.9194 33.1929 20.6378 33.1929 20.6378C33.1929 20.6378 34.4113 19.9426 33.8948 18.1028C33.6688 17.2926 32.6258 15.3753 31.4683 13.2479L31.4682 13.2478L31.4682 13.2478L31.4675 13.2464L31.4655 13.2426L31.4607 13.234C31.2474 12.8418 31.0303 12.4427 30.8136 12.0421C31.1556 12.2897 31.5407 12.4685 31.9483 12.5695C32.7969 12.7813 33.6275 12.6483 34.2232 12.2695C34.3546 12.1863 34.4273 12.0336 34.4102 11.8769C34.3931 11.7203 34.2892 11.5875 34.1432 11.5358L32.5738 10.9744C32.3918 10.9094 32.2426 10.7733 32.1591 10.5962C32.0756 10.419 32.0645 10.2153 32.1283 10.0297L32.131 10.0243C32.1947 9.83883 32.328 9.68683 32.5018 9.60165C32.6754 9.51655 32.8752 9.5052 33.057 9.57028L34.4581 10.0711C34.5977 10.1209 34.753 10.0849 34.8577 9.97844C34.963 9.87107 35.0151 9.70512 34.9494 9.56932ZM12.4365 6.0822C12.4443 6.14308 12.4918 6.19072 12.5517 6.19776L12.7272 6.21886C12.7933 6.22734 12.8552 6.18397 12.8711 6.11797C13.42 3.80577 14.9489 2.40891 15.4412 2.00902C15.4753 1.98077 15.4933 1.937 15.4891 1.89239C15.4849 1.84779 15.4592 1.80825 15.4205 1.78706C14.2344 1.14413 12.4778 1.21933 12.4778 1.21933C6.73851 1.58987 3.86073 7.07459 2.92936 9.71976C2.18157 11.8402 3.22092 12.7363 3.66186 13.0078C3.69936 13.0304 3.74568 13.0317 3.78434 13.0112C3.82299 12.9906 3.84848 12.9512 3.85173 12.9069C3.90032 12.0998 4.20808 9.02631 6.07801 7.39835C7.41251 6.23537 9.67303 6.06478 11.2109 6.10513C11.1407 3.72139 12.953 2.23006 12.953 2.23006C12.953 2.23006 12.2061 4.3469 12.4365 6.0822ZM24.1492 8.5586C23.7812 8.51886 23.7543 8.17128 23.7295 7.85007C23.7084 7.57826 23.6888 7.32534 23.4653 7.29382C23.378 7.28195 23.3214 7.55239 23.2638 7.82706C23.197 8.14648 23.129 8.4716 23.01 8.36509C22.6658 8.05612 22.7926 7.49377 22.8846 7.08583C22.9095 6.97546 22.9318 6.8764 22.9416 6.79671C22.9513 6.71812 22.9668 6.63536 22.9816 6.55627V6.55621C23.0373 6.25874 23.0834 6.01317 22.7706 6.23631C22.3746 6.51789 22.1632 7.1113 22.0282 7.61759C21.9361 7.9642 22.0343 8.18653 22.1647 8.48157C22.2239 8.61591 22.29 8.76532 22.3477 8.94841C22.5312 9.53449 22.1893 9.33361 22.1893 9.33361C20.3464 8.20549 21.6746 5.83276 21.6746 5.83276C22.4727 4.43956 23.6687 4.85596 23.6687 4.85596C23.9009 4.94034 23.9594 5.07883 23.9594 5.37509C23.9594 5.67133 24.0368 5.7658 24.3796 5.84834C24.7234 5.93182 24.8853 6.36197 24.8853 7.0581C24.8853 7.75516 24.4533 8.59162 24.1492 8.5586ZM25.3522 7.75602C25.2038 8.46499 25.6673 8.55855 25.6673 8.55855C25.6673 8.55855 26.3457 8.1073 26.3457 7.54232C26.3457 6.23626 25.8571 6.23626 25.8571 6.23626C25.5718 6.36192 25.4783 6.78748 25.4783 7.15436C25.4783 7.42072 25.4506 7.49126 25.4071 7.60225C25.3908 7.64374 25.3724 7.69088 25.3522 7.75602ZM30.0928 18.9365C31.7477 18.9365 31.9286 17.5727 31.9286 17.5727C31.928 16.8515 31.2565 17.3131 30.8352 17.6027L30.8109 17.6194C30.3907 17.9083 30.0811 17.9698 29.956 17.7084C29.83 17.447 30.0326 17.2682 30.0326 17.2682C30.3295 16.9655 30.792 16.1372 30.792 15.3329C30.6868 10.6644 26.2369 9.71976 26.2369 9.71976C27.6875 10.8547 27.6236 11.9644 27.5788 12.7424V12.7424V12.7425V12.7426V12.7427C27.5717 12.8661 27.5651 12.9812 27.5651 13.0867C27.2939 12.446 26.9414 11.8887 26.585 11.3252L26.5849 11.3251L26.5848 11.325L26.5847 11.3249C26.532 11.2416 26.4793 11.1582 26.4267 11.0744C26.9964 16.5454 28.4398 18.9365 30.0928 18.9365ZM30.0164 11.001C31.2032 12.253 32.3497 11.9567 32.3497 11.9567C31.242 11.7274 30.595 10.3682 30.595 10.3682C30.4762 11.0542 30.0164 11.001 30.0164 11.001ZM25.6673 20.1719C25.6673 20.1719 24.4633 22.4951 22.8272 22.4951C22.1587 22.4951 21.6818 22.0081 21.6818 21.334C21.6818 20.6598 22.4916 18.2458 26.011 18.2458C26.8524 18.2458 27.5111 18.4027 27.5111 18.9208C27.5111 19.4391 26.7129 20.3305 25.6673 20.1719ZM30.0118 9.36576L26.9793 8.43025C26.6364 9.14383 27.2303 9.45294 27.2303 9.45294C27.9654 9.68562 28.7042 9.90548 29.4467 10.1123C30.5688 10.4224 30.0118 9.36576 30.0118 9.36576ZM12.0685 13.0867C9.91775 13.4774 9.15645 12.8042 9.15645 12.2364C9.15645 10.503 14.0437 9.16029 15.4196 9.13915C15.5739 9.3772 15.491 9.45996 15.3528 9.59783C15.2428 9.70763 15.0977 9.85227 15.0093 10.138C14.8104 10.7827 14.3245 10.9872 13.6127 11.0744C12.8972 11.1771 12.2272 11.4919 11.686 11.9797C11.2496 12.3887 11.686 12.5758 12.5733 12.3154C13.0888 12.164 13.3354 12.2366 13.5249 12.2924C13.6545 12.3306 13.7575 12.361 13.9015 12.3062C14.1159 12.2248 14.0861 12.0341 14.0616 11.8778C14.0455 11.7749 14.0317 11.687 14.0914 11.655C14.3208 11.5339 14.795 11.8641 14.795 11.8641L16.0306 12.6658C16.0306 12.6658 14.6421 13.3857 14.5449 13.4416C14.4468 13.4966 14.2812 13.5902 14.2812 13.7838C14.2812 14.0351 14.796 14.0053 15.1277 13.9862C15.2016 13.9819 15.2663 13.9782 15.3143 13.9782C15.5789 13.9782 15.6193 14.4184 15.6193 14.4184C15.2144 14.8953 14.1634 14.8991 14.1634 14.8991C14.3669 15.3393 15.3952 15.3343 15.8356 15.3321H15.8356H15.8357H15.8358C15.9017 15.3318 15.9544 15.3316 15.9892 15.3329C16.2147 15.3406 16.2698 15.6148 16.3626 16.0766C16.3798 16.162 16.3982 16.254 16.4193 16.3518C16.5543 16.9783 17.4128 17.2452 17.4128 17.2452C17.69 18.1743 16.5939 18.443 15.8686 18.443C11.6204 18.443 12.0685 13.0867 12.0685 13.0867ZM16.8188 13.4775C16.8188 13.4775 17.3498 15.8438 18.4152 16.6803C18.4152 16.6803 18.3747 16.9187 18.0391 16.9187C17.7034 16.9187 17.0699 16.3711 16.8188 15.0927C16.5677 13.8141 16.8188 13.4775 16.8188 13.4775ZM16.476 6.42985C16.476 6.42985 17.0699 7.59558 18.4152 7.59558C19.7614 7.59558 20.1637 6.70775 20.1637 6.70775C18.0193 7.91934 16.476 6.42985 16.476 6.42985ZM3.53076 29.8584L3.53045 29.8583H3.53135L3.53076 29.8584ZM3.53076 29.8584C3.558 29.8696 5.35719 30.6087 5.35719 31.3478C5.35719 31.3478 5.2474 31.9073 4.62649 31.9073C4.00558 31.9073 3.1669 30.9066 3.1669 30.4168C3.1669 29.9394 3.51447 29.8618 3.53076 29.8584ZM1.13258 20.8125C1.12413 20.7754 1.09946 20.7437 1.06527 20.7265C1.03108 20.7092 0.990935 20.708 0.955759 20.7232C0.596667 20.8803 0 21.31 0 22.2013C0 23.7887 2.07432 24.6963 4.76237 25.8724C7.64315 27.1329 11.2288 28.7018 13.7215 31.7463C14.2473 32.3883 15.0398 32.7545 15.8715 32.7396C16.9651 32.7188 18.0569 32.661 19.0226 32.5066C19.1371 32.4884 19.2341 32.4128 19.2791 32.3064C19.3241 32.2 19.3108 32.078 19.2439 31.9838C16.0277 27.4221 11.2206 25.937 7.3553 24.7429C4.16412 23.757 1.61483 22.9694 1.13258 20.8125ZM13.8952 10.5149L13.8957 10.5154V10.5144L13.8952 10.5149ZM13.8952 10.5149C13.3234 9.94586 11.7046 10.3801 10.8343 11.1158C9.93933 11.8707 10.2948 12.3773 10.2948 12.3773C11.0221 11.356 12.1601 10.9389 12.8012 10.8576C13.5716 10.7606 13.881 10.5258 13.8952 10.5149ZM13.2528 14.3837C13.2528 14.3837 12.6234 14.5507 12.7921 15.4157C12.9617 16.288 13.6744 16.3106 13.6744 16.3106C13.055 15.5927 13.2528 14.3837 13.2528 14.3837ZM4.8046 27.42C4.01028 27.0629 3.28044 26.7348 2.72307 26.4198C1.86162 25.9332 1.84167 26.6338 1.84167 26.6338C1.84167 27.4017 2.82666 28.0608 3.9485 28.8116C4.77519 29.3649 5.6762 29.9679 6.31214 30.7007C7.33318 31.8772 7.71948 32.2249 9.15671 32.2249C11.0538 32.2249 10.7109 31.6533 10.7109 31.6533C9.9629 29.739 7.11178 28.4572 4.8046 27.42Z" clip-rule="evenodd" fill-rule="evenodd"></path>
<path fill="black" d="M48.9089 13.3863C49.7068 13.3863 50.4721 13.7257 51.0706 14.235L52.3674 11.6526C51.2538 11.007 49.7068 10.5989 48.4437 10.5989C45.9327 10.5989 44.121 12.2982 44.121 14.8987C44.121 17.379 45.4676 17.9235 47.5123 18.5177L47.6174 18.5481C48.3312 18.7543 49.491 19.0893 49.491 19.9795C49.491 20.8798 48.6767 21.2707 47.9113 21.2707C46.7978 21.2707 45.833 20.6766 45.0178 19.9452L43.6213 22.6296C44.9017 23.5471 46.4478 24.0916 48.0275 24.0916C49.2915 24.0916 50.6054 23.7339 51.5857 22.8852C52.5831 22.0184 52.8824 20.7101 52.8824 19.436C52.8824 17.3619 51.5358 16.4617 49.7902 15.9343L48.9587 15.6797L48.9527 15.6777C48.3875 15.4907 47.5123 15.2012 47.5123 14.4563C47.5123 13.7429 48.3104 13.3863 48.9089 13.3863ZM58.3658 16.7506C59.18 16.7506 59.9281 17.2544 60.0777 18.1266V18.1276H56.5703C56.7516 17.2544 57.4844 16.7506 58.3658 16.7506ZM62.8408 19.8731H56.5204C56.5204 21.1336 57.1679 21.8235 58.4156 21.8235C59.064 21.8235 59.5292 21.6184 59.8619 21.0369H62.7719C62.2894 23.1706 60.3779 24.0347 58.432 24.0347C55.6055 24.0347 53.4936 22.4067 53.4936 19.3981C53.4936 16.4924 55.416 14.7435 58.1917 14.7435C61.1514 14.7435 62.8408 16.6143 62.8408 19.5886V19.8731ZM66.6402 16.5754H66.5414V15.0241H63.5997V23.752H66.5414V20.2341C66.5414 18.7379 66.9776 17.6002 68.6569 17.6002C69.123 17.6002 69.483 17.6508 69.9573 17.8891V14.9266H69.4005C68.2198 14.9266 67.2224 15.3149 66.6402 16.5754Z" clip-rule="evenodd" fill-rule="evenodd"></path>
<path fill="black" d="M82.6198 12.905C83.5472 12.905 84.3101 12.12 84.3101 11.1636V11.1627C84.3101 10.2072 83.5472 9.42041 82.6198 9.42041C81.6906 9.42041 80.9295 10.2072 80.9295 11.1627C80.9295 12.12 81.6906 12.905 82.6198 12.905ZM75.3768 19.0084L77.3988 14.5166H80.7804L76.3386 23.2888H74.416L69.957 14.5166H73.3376L75.3768 19.0084ZM81.0579 23.2888H84.1799V14.5166H81.0579V23.2888ZM91.8419 17.3796C91.3688 17.0374 90.8601 16.7652 90.2803 16.7652C89.12 16.7652 88.2066 17.6872 88.2066 18.8995C88.2066 20.1636 89.087 21.0511 90.3306 21.0511C90.8618 21.0511 91.3688 20.8297 91.8419 20.453V23.0828C91.0845 23.4249 90.4459 23.5783 89.7162 23.5783C87.197 23.5783 85.0901 21.6491 85.0901 19.0021C85.0901 16.1844 87.1814 14.238 89.8505 14.238C90.5464 14.238 91.2743 14.4077 91.8419 14.7498V17.3796ZM97.519 16.2525C98.331 16.2525 99.0771 16.7588 99.2262 17.6354V17.6363H95.7295C95.9106 16.7588 96.6403 16.2525 97.519 16.2525ZM101.963 19.3905H95.6792C95.6792 20.6573 96.3257 21.3506 97.5684 21.3506C98.2149 21.3506 98.6794 21.1446 99.0104 20.5601H101.912C101.431 22.7045 99.5243 23.5729 97.5849 23.5729C94.7676 23.5729 92.6617 21.9367 92.6617 18.9132C92.6617 15.993 94.5691 14.2353 97.3379 14.2353C100.288 14.2353 101.963 16.1155 101.963 19.1046V19.3905ZM104.802 23.2888H107.922V13.2498H110.666V10.4231H102.058V13.2498H104.802V23.2888ZM111.327 23.2888H114.356V14.5166H111.327V23.2888ZM112.915 12.905C113.843 12.905 114.605 12.12 114.605 11.1636V11.1627C114.605 10.2072 113.843 9.42041 112.915 9.42041C111.987 9.42041 111.224 10.2072 111.224 11.1627C111.224 12.12 111.987 12.905 112.915 12.905ZM119.274 23.2888H116.248V17.051H115.302V14.5175H116.248V11.8859H119.274V14.5175H120.977V17.051H119.274V23.2888ZM125.992 20.8805C124.764 20.8805 124.052 20.0266 124.052 18.9168C124.052 17.8405 124.764 16.9359 125.992 16.9359C127.217 16.9359 127.93 17.8405 127.93 18.9168C127.93 20.0266 127.217 20.8805 125.992 20.8805ZM130.814 23.2888H127.787V22.332C127.254 23.1969 126.216 23.5783 125.228 23.5783C122.709 23.5783 120.935 21.4095 120.935 18.8995C120.935 16.3886 122.655 14.2371 125.175 14.2371C126.152 14.2371 127.125 14.6128 127.787 15.3814V14.5175H130.814V23.2888ZM134.886 15.6862H134.789V14.5175H131.76V23.2888H134.788V18.7461C134.788 17.6526 135.135 16.7135 136.362 16.7135C137.745 16.7135 137.731 17.9759 137.721 18.8266C137.72 18.8937 137.719 18.9582 137.719 19.0193V23.2888H140.747V17.875C140.747 15.7226 139.863 14.2525 137.576 14.2525C136.399 14.2525 135.582 14.6145 134.886 15.6862Z" clip-rule="evenodd" fill-rule="evenodd"></path>
</g>
<defs>
<clipPath id="clip0_62_6014">
<rect transform="translate(0 0.26001)" fill="white" height="32.48" width="140.746"></rect>
</clipPath>
</defs>
</svg>
