<svg height="702" width="963" viewBox="0 0 963 702" xmlns="http://www.w3.org/2000/svg" version="1.2"><defs><linearGradient gradientUnits="userSpaceOnUse" id="P"></linearGradient><linearGradient gradientTransform="matrix(-49.54,76.71,-76.71,-49.54,805.94,579.799)" href="#P" x2="1" id="g1"><stop stop-color="#e8bfff"></stop><stop stop-color="#7b30d9" offset="1"></stop></linearGradient><linearGradient gradientTransform="matrix(-174.401,709.89,-687.028,-168.784,389.82,16.513)" href="#P" x2="1" id="g2"><stop stop-color="#e8bfff"></stop><stop stop-color="#7b30d9" offset="1"></stop></linearGradient><linearGradient gradientTransform="matrix(25.625,29.31,-29.31,25.625,34.324,344.108)" href="#P" x2="1" id="g3"><stop stop-color="#e8bfff"></stop><stop stop-color="#7b30d9" offset="1"></stop></linearGradient></defs><style>.a{fill:url(#g1)}.b{fill:url(#g2)}.c{fill:url(#g3)}</style><path d="m798.8 665.3c-23.4 0-42.3-18.9-42.3-42.2 0-23.4 18.9-42.3 42.3-42.3 23.3 0 42.2 18.9 42.2 42.3 0 23.3-18.9 42.2-42.2 42.2z" class="a" fill-rule="evenodd"></path><path d="m389.1 42.8c23.7 6.1 46.3 21.2 59.5 47.1 12.3 24 12.1 48.7 8.9 67.7-3.2 19.2-10.4 37.7-18.5 54.2-5 10.2-10.9 20.6-17.3 31.1 18.7-4.3 36.6-6.9 53.7-7.6 52.8-66.6 108-127.4 152-171.6 24.6-24.8 64.5-24.9 89.3-0.3 24.7 24.5 24.8 64.5 0.3 89.2-34.1 34.4-75.9 79.8-117.4 130q3.6 4.2 7 8.8c20.7 28 28.4 60.9 30 90.9 3.1 58.9-17.9 120.7-43.3 176.1-20 43.7-27.7 59-68.5 95.7-61.6 32.1-86.2 33.8-118.3 37.7-38.5 4.7-69.9-17.1-95.2-43-24.9-34.4-19.4-68.8-17.3-89.4 9.2-37.6 10.8-41.8 26-78 11.5-27.2 25.8-55 42.1-83-32.5 15.3-70.2 36-113.6 62.9-30.2 18.7-69.8 12.4-91.7-15.5-21.8-28-18.3-68.1 7-93 36.1-35.5 76.4-78.1 109.3-119.1 15.5-19.3 28.5-37.1 38.5-53-8.6 3.9-18.1 8.5-28.4 13.8-60.6 31.6-130.4 80-176.2 115.3-27.7 21.3-67.3 16.1-88.6-11.5-21.2-27.7-16.1-67.3 11.5-88.6 48.9-37.6 125.3-90.9 195-127.2 34.1-17.7 71.3-34 105.1-40.3 16.8-3.2 37.9-5 59.1 0.6zm121.4 357.3c-31.2 45.7-57.3 90.3-74.2 130.4-12.2 29-18.3 52.5-19.5 70.4q-0.2 3.4-0.2 6.3c20.4-20.3 44.4-55.3 63.5-97.1 18.8-41 29.3-80.6 30.4-110zm-177.4-264.4q0 0 0 0.1 0-0.1 0-0.1zm0 0z" class="b" fill-rule="evenodd"></path><path d="m42.5 387.1c-13.6 0-24.5-10.9-24.5-24.4 0-13.6 10.9-24.5 24.5-24.5 13.5 0 24.4 10.9 24.4 24.5 0 13.5-10.9 24.4-24.4 24.4z" class="c" fill-rule="evenodd"></path></svg>